<?xml version="1.0" ?>
<!-- Uploaded to: SVG Repo, www.svgrepo.com, Generator: SVG Repo Mixer Tools -->
<svg fill="#000000" width="800px" height="800px" viewBox="0 0 512 512" xmlns="http://www.w3.org/2000/svg">
<title/>
<g id="ocean_garbage_pollution">
<path d="M477.39,194.65C469.21,187.79,459.94,180,441.9,180s-27.31,7.77-35.49,14.63c-4.22,3.55-8.12,6.8-13.18,8.91l21.42-76.51a41,41,0,0,0-1.15-25.73l-13.65-36,3.82-13.62,4.09,1.15a7.29,7.29,0,0,0,1.89.26A7,7,0,0,0,416.39,48l4-14.19a13.75,13.75,0,0,0-9.52-16.93l-35.62-10A13.74,13.74,0,0,0,358.3,16.4l-4,14.2a7,7,0,0,0,4.85,8.63l3.45,1-4.12,14.7L328.89,77.47a41.46,41.46,0,0,0-14.72,21.68l-25.29,90.34c-2.29,1.69-4.4,3.45-6.44,5.16C275.17,200.75,268.9,206,256,206s-19.23-5.27-26.49-11.37l0,0L178.06,23.05a13.25,13.25,0,0,0-16.47-8.9L141.1,20.28a13.24,13.24,0,0,0-8.87,16.49L142,69.43,108.17,79.57,98.39,46.9A13.26,13.26,0,0,0,81.91,38L61.43,44.13a13.24,13.24,0,0,0-8.87,16.49L89.44,183.83A47.28,47.28,0,0,0,70,180c-18,0-27.32,7.77-35.49,14.63C27.23,200.75,21,206,8,206v14c18,0,27.31-7.78,35.49-14.64C50.76,199.28,57,194,70,194c12.48,0,18.76,4.89,25.7,10.7l12.64,42.21a19.9,19.9,0,0,0,24.8,13.41l87.35-26.15a19.94,19.94,0,0,0,14.19-18.84A46.57,46.57,0,0,0,256,220c12,0,20.06-3.43,26.55-7.73l-.72,2.55a24.94,24.94,0,0,0,17.3,30.74l52.38,14.67A24.91,24.91,0,0,0,382.2,243l6.62-23.64c12.42-2.07,19.88-8.3,26.59-13.93C422.68,199.28,429,194,441.9,194s19.23,5.26,26.49,11.36c8.18,6.86,17.45,14.64,35.49,14.64V206C490.94,206,484.66,200.75,477.39,194.65ZM146,82.85l2.34,7.78a4.69,4.69,0,0,1-3.11,5.84l-24.93,7.46a4.68,4.68,0,0,1-5.81-3.16L112.18,93ZM85.19,51.63l15.91,53.15a18.71,18.71,0,0,0,23.23,12.57l24.93-7.47a18.7,18.7,0,0,0,12.51-23.26L145.86,33.47l19-5.69L211.32,183A48.2,48.2,0,0,0,194,180c-18.05,0-27.32,7.77-35.5,14.63C151.21,200.75,144.93,206,132,206c-11.5,0-17.74-4.16-24.08-9.36L66.18,57.32ZM216.47,220.78l-87.35,26.15a5.88,5.88,0,0,1-4.5-.47,6,6,0,0,1-2.88-3.55l-7.82-26.14A48,48,0,0,0,132,220c18,0,27.31-7.78,35.49-14.64C174.74,199.28,181,194,194,194c11,0,17.19,3.8,23.26,8.69l3.19,10.66A6,6,0,0,1,216.47,220.78ZM371.71,20.44l35.1,9.82-2,7.2-13.21-3.7-18.44-5.17h-.07l-3.38-.95Zm18.47,27.47-2,7.09-14.08-3.94,2-7.1Zm-62.53,55a27.45,27.45,0,0,1,9.72-14.33l27.7-21.11,4.25-3.24,17,4.75,1.88,5,12.25,32.33a27.18,27.18,0,0,1,.76,17L378,206c-11.68-.5-17.69-5.53-24.6-11.32C345.25,187.79,336,180,317.93,180a51.84,51.84,0,0,0-12.25,1.38Zm27.58,143.84L302.85,232.1a10.93,10.93,0,0,1-7.59-13.48l5.7-20.34a32.26,32.26,0,0,1,17-4.26c12.95,0,19.23,5.26,26.5,11.36s15.39,12.89,29.74,14.34l-5.45,19.46A11,11,0,0,1,355.23,246.77Z"/>
<path d="M441.9,275.3c-18,0-27.31,7.78-35.49,14.64-7.27,6.1-13.54,11.36-26.49,11.36s-19.23-5.26-26.5-11.36c-8.17-6.86-17.44-14.64-35.49-14.64s-27.31,7.78-35.49,14.64C275.17,296,268.9,301.3,256,301.3s-19.23-5.26-26.49-11.36C221.28,283.08,212,275.3,194,275.3s-27.32,7.78-35.5,14.64C151.21,296,144.93,301.3,132,301.3s-19.23-5.26-26.5-11.36C97.3,283.08,88,275.3,70,275.3s-27.32,7.78-35.49,14.64C27.23,296,21,301.3,8,301.3v14c18,0,27.31-7.77,35.49-14.63C50.76,294.57,57,289.3,70,289.3s19.23,5.27,26.5,11.37c8.17,6.86,17.44,14.63,35.49,14.63s27.31-7.77,35.49-14.63c7.27-6.1,13.55-11.37,26.5-11.37s19.22,5.27,26.49,11.37c8.18,6.86,17.45,14.63,35.49,14.63s27.31-7.77,35.49-14.63c7.27-6.1,13.54-11.37,26.49-11.37s19.23,5.27,26.5,11.37c8.17,6.86,17.44,14.63,35.49,14.63s27.31-7.77,35.49-14.63c7.27-6.1,13.54-11.37,26.49-11.37s19.23,5.27,26.49,11.37c8.18,6.86,17.45,14.63,35.49,14.63v-14c-12.94,0-19.22-5.26-26.49-11.36C469.21,283.08,459.94,275.3,441.9,275.3Z"/>
<path d="M441.9,370.59c-18,0-27.31,7.78-35.49,14.64-7.27,6.1-13.54,11.36-26.49,11.36-.94,0-1.85,0-2.73-.08l.56-.78a7,7,0,0,0,0-8.17c-28-39-58.37-58.33-90.43-57.63-21.8.5-44.27,10.74-65,29.61a170.14,170.14,0,0,0-20.65,22.59l-41.81-27.29a7,7,0,0,0-10.83,5.86v31.59c-4,2.34-9.25,4.3-17.07,4.3-12.95,0-19.23-5.26-26.5-11.36C97.3,378.37,88,370.59,70,370.59s-27.32,7.78-35.49,14.64C27.23,391.33,21,396.59,8,396.59v14c18,0,27.31-7.78,35.49-14.64C50.76,389.86,57,384.59,70,384.59s19.23,5.27,26.5,11.36c8.17,6.86,17.44,14.64,35.49,14.64a48.49,48.49,0,0,0,17.07-2.85v19.14a7,7,0,0,0,11.18,5.62l41.72-31a170.89,170.89,0,0,0,20.39,22.26c20.71,18.86,43.18,29.1,65,29.6l1.75,0c27.48,0,53.76-14.87,78.32-44.25a51.15,51.15,0,0,0,12.53,1.46c18,0,27.31-7.78,35.49-14.64,7.27-6.09,13.54-11.36,26.49-11.36s19.23,5.27,26.49,11.36c8.18,6.86,17.45,14.64,35.49,14.64v-14c-12.94,0-19.22-5.26-26.49-11.36C469.21,378.37,459.94,370.59,441.9,370.59ZM163.05,413V373.63L191.24,392ZM362.88,392.3q-4.41,5.85-8.9,11c-21.37,24.46-43.64,36.57-66.28,36.09-37.45-.82-66.81-35.91-75.63-47.71,8.83-11.81,38.18-46.9,75.63-47.72,26-.54,51.47,15.48,75.68,47.72C363.22,391.87,363.05,392.09,362.88,392.3Z"/>
<path d="M327.1,376.44a6.5,6.5,0,0,0-9.19-.17l-6.61,6.36-6.6-6.36a6.5,6.5,0,1,0-9,9.36l6.25,6-6.25,6a6.5,6.5,0,0,0,9,9.37l6.6-6.36,6.61,6.36a6.5,6.5,0,0,0,9-9.37l-6.25-6,6.25-6A6.5,6.5,0,0,0,327.1,376.44Z"/>
</g>
</svg>