<?xml version="1.0" encoding="iso-8859-1"?>
<!-- Uploaded to: SVG Repo, www.svgrepo.com, Generator: SVG Repo Mixer Tools -->
<!DOCTYPE svg PUBLIC "-//W3C//DTD SVG 1.1//EN" "http://www.w3.org/Graphics/SVG/1.1/DTD/svg11.dtd">
<svg fill="#000000" version="1.1" id="Capa_1" xmlns="http://www.w3.org/2000/svg" xmlns:xlink="http://www.w3.org/1999/xlink" 
	 width="800px" height="800px" viewBox="0 0 191.1 191.1" xml:space="preserve"
	>
<g>
	<path d="M189.801,177.78c0.217-0.721,0.331-1.487,0.194-2.303c-2.235-13.303-16.938-25.678-26.018-34.635
		c-14.431-14.237-30.469-26.787-45.976-39.807C83.191,71.807,47.03,43.515,8.754,18.907c-2.106-1.354-4.299,0.28-4.734,2.262
		c-0.882,0.552-1.568,1.476-1.672,2.882c-2.457,33.414,2.506,66.839-0.13,100.247c-1.003,12.711-7.933,47.82,9.298,54.563
		c7.867,3.077,18.321,0.891,26.534,1.188c18.555,0.67,37.124,0.7,55.686,0.445c28.473-0.391,62.22-6.393,89.117,5.576
		C188.515,188.59,193.561,181.524,189.801,177.78z M130.945,168.389c-31.026,0.445-61.842,1.732-92.895,0.714
		c-9.053-0.297-22.028,3.839-24.818-6.613c-3.799-14.232-0.713-28.854,0.429-43.21c2.38-29.915-0.982-60.673-3.693-90.55
		c29.896,27.724,64.971,49.773,95.706,76.571c14.29,12.459,28.912,24.522,43.027,37.187c9.891,8.875,17.536,19.416,26.024,29.196
		C160.591,168.053,145.129,168.185,130.945,168.389z"/>
	<path d="M169.263,94.726c-13.379-20.914-39.213-30.449-52.905-51.289c3.763-4.113,2.313-11.001-1.334-14.708
		c-2.102-2.137-5.196-3.182-8.154-2.942c-0.767,0.062-1.663,0.244-2.582,0.516c-0.051-0.457-0.357-0.884-0.887-0.844
		c-7.861,0.591-11.395,8.073-8.233,15.073c3.114,6.89,12.81,8.286,18.898,4.773c0.662,3.749,1.923,7.198,3.613,10.428
		c-4.852-1.128-9.821-1.624-14.811-2.356c-2.946-0.432-6.484-2.296-9.311-0.64c-0.044,0.026-0.065,0.061-0.108,0.087
		C74.03,35.029,53.687,17.325,30.407,4.767C28.181,3.566,26.42,6.7,28.452,8.112C50.185,23.227,69.2,41.01,89.271,58.141
		c0.625,0.533,1.302,0.794,1.968,0.851c0.444,1.628,2.027,2.972,3.58,3.399c9.026,2.488,18.722,2.259,27.933,0.99
		c4.555,5.656,10.341,10.663,16.329,15.504c-3.493,0.959-6.561,3.09-8.237,6.673c-2.729,5.832-2.863,14.881,0.176,20.591
		c1.677,3.148,7.631,2.853,8.161-1.066c0.583-4.312-0.771-8.662-0.054-13c0.731-4.43,3.557-6.07,7.34-7.282
		c5.988,4.804,11.742,9.646,16.189,15.023C165.724,103.532,171.81,98.708,169.263,94.726z"/>
</g>
</svg>