<?xml version="1.0" encoding="iso-8859-1"?>
<!-- Uploaded to: SVG Repo, www.svgrepo.com, Generator: SVG Repo Mixer Tools -->
<!DOCTYPE svg PUBLIC "-//W3C//DTD SVG 1.1//EN" "http://www.w3.org/Graphics/SVG/1.1/DTD/svg11.dtd">
<svg fill="#000000" version="1.1" id="Capa_1" xmlns="http://www.w3.org/2000/svg" xmlns:xlink="http://www.w3.org/1999/xlink" 
	 width="800px" height="800px" viewBox="0 0 118.532 118.532"
	 xml:space="preserve">
<g>
	<path d="M46.761,23.746H69.81c-0.796,4.802-4.551,8.785-9.62,9.62C53.826,34.415,47.815,30.11,46.761,23.746z M81.659,75.323
		c0.285,1.884-1.01,3.644-2.894,3.928c-1.747,0.267-3.386-0.831-3.843-2.493l-1.967-7.14c1.705,15.214,1.688,30.731,1.688,30.731
		H68.26c-0.054,7.814-0.099,14.473-0.099,14.473c-0.016,2.062-1.699,3.723-3.762,3.709c-1.931-0.014-3.511-1.506-3.693-3.387
		c0,0-0.643-6.848-1.386-14.795h-0.595l-1.354-15.748L57,100.35h-1.194c-0.745,7.947-1.387,14.795-1.387,14.795
		c-0.191,2.055-2.014,3.563-4.067,3.371c-1.922-0.182-3.366-1.806-3.386-3.693c0,0-0.046-6.657-0.1-14.473h-7.73
		c-0.273-4.676,1.099-19.013,2.437-31.35l-1.946,7.068c-0.457,1.664-2.097,2.76-3.844,2.494c-1.883-0.285-3.178-2.045-2.893-3.928
		l2.643-17.417c0.022-0.143,0.062-0.297,0.115-0.438l0.018-0.048l0.399-1.063l0.313-0.79l0.65-1.556
		c0.442-1.029,0.908-2.05,1.4-3.065c0.988-2.029,2.072-4.039,3.357-6.03c1.306-1.986,2.746-3.973,4.862-5.876
		c0.167-0.148,0.351-0.295,0.528-0.442l-2.846-7.946l1.99,0.697l-0.004-0.01l10.277,3.599l-0.007,0.605
		c0.292-0.022,0.583-0.044,0.881-0.044c0.016,0,0.031,0,0.047,0c0.837,0.003,1.649,0.103,2.434,0.277l-0.01-0.839l10.275-3.599
		l-2.846,7.946c0.178,0.146,0.36,0.294,0.527,0.441c2.116,1.903,3.557,3.891,4.862,5.877c1.286,1.991,2.37,4,3.356,6.03
		c0.492,1.016,0.959,2.036,1.401,3.065l0.649,1.556l0.312,0.79l0.4,1.063l0.018,0.048c0.053,0.141,0.092,0.295,0.115,0.438
		L81.659,75.323z M60.618,63.021c0-1.289-1.044-2.332-2.333-2.332s-2.333,1.043-2.333,2.332s1.045,2.332,2.333,2.332
		S60.618,64.311,60.618,63.021z M60.618,53.834c0-1.288-1.044-2.332-2.333-2.332s-2.333,1.044-2.333,2.332
		c0,1.289,1.045,2.333,2.333,2.333S60.618,55.123,60.618,53.834z M60.618,44.941c0-1.289-1.044-2.333-2.333-2.333
		s-2.333,1.044-2.333,2.333c0,1.288,1.045,2.333,2.333,2.333S60.618,46.229,60.618,44.941z M39.694,22.867h37.182
		c0.522,0,0.947-0.424,0.947-0.947s-0.425-0.947-0.947-0.947H70.68v-4.667c0-4.188-1.747-6.346-5.935-6.346H52.142
		c-4.188,0-5.521,2.158-5.521,6.346v4.667h-6.927c-0.522,0-0.947,0.424-0.947,0.947S39.17,22.867,39.694,22.867z M76.534,13.349
		C76.534,5.989,82.522,0,89.883,0s13.35,5.988,13.35,13.349s-5.987,13.349-13.35,13.349C82.522,26.698,76.534,20.709,76.534,13.349z
		 M79.249,13.349c0,5.863,4.77,10.634,10.633,10.634s10.634-4.771,10.634-10.634c0-5.863-4.771-10.634-10.634-10.634
		S79.249,7.486,79.249,13.349z M7.295,27.297c0-7.361,5.988-13.349,13.348-13.349c7.361,0,13.35,5.987,13.35,13.349
		c0,7.36-5.988,13.348-13.35,13.348C13.285,40.645,7.295,34.658,7.295,27.297z M10.011,27.297c0,5.862,4.77,10.633,10.633,10.633
		c5.863,0,10.635-4.771,10.635-10.633c0-4.504-2.818-8.354-6.78-9.9c0.157,0.897,0.421,2.11,0.47,2.394
		c0.172,1.021,0.351,2.076-1.353,2.945c-0.058,0.028-0.134,0.064-0.226,0.108c-2.234,1.056-2.482,1.589-2.484,1.769
		c-0.002,0.085,0.117,0.235,0.451,0.405l-0.014,0.028h5.148c1.986,0,3.598,1.61,3.598,3.598c0,1.986-1.611,3.598-3.598,3.598H14.978
		c-1.986,0-3.598-1.611-3.598-3.598c0-1.987,1.611-3.598,3.598-3.598h5.051c-0.061-0.142-0.093-0.29-0.091-0.447
		c0.015-1.059,1.544-1.924,3.038-2.631l0.203-0.097c1.067-0.544,0.999-0.946,0.834-1.919c-0.059-0.347-0.404-1.933-0.541-2.896
		c-0.902-0.25-1.848-0.394-2.828-0.394C14.781,16.663,10.011,21.434,10.011,27.297z M19.563,28.029H18.92
		c-0.146,0-0.264,0.118-0.264,0.264s0.118,0.264,0.264,0.264h0.643c0.145,0,0.264-0.118,0.264-0.264S19.708,28.029,19.563,28.029z
		 M14.375,29.669v0.025c0,0.618,0.504,1.122,1.122,1.122c0.619,0,1.122-0.504,1.122-1.122v-0.025
		c0.586-0.038,1.051-0.525,1.051-1.12c0-0.6-0.471-1.09-1.063-1.12c-0.079-0.542-0.547-0.959-1.11-0.959s-1.03,0.417-1.11,0.959
		c-0.59,0.03-1.063,0.521-1.063,1.12C13.326,29.144,13.79,29.631,14.375,29.669z M21.14,28.556h0.641
		c0.146,0,0.264-0.118,0.264-0.264s-0.117-0.264-0.264-0.264H21.14c-0.146,0-0.264,0.118-0.264,0.264S20.994,28.556,21.14,28.556z
		 M27.033,28.093c0.285-0.256,0.434-0.649,0.346-1.05c-0.129-0.591-0.715-0.966-1.305-0.837c-0.389,0.085-0.68,0.368-0.801,0.72
		c-0.255-0.27-0.639-0.405-1.026-0.32c-0.591,0.129-0.967,0.714-0.837,1.305c0.087,0.401,0.385,0.696,0.752,0.81
		c-0.286,0.256-0.434,0.648-0.346,1.05c0.129,0.591,0.715,0.966,1.305,0.836c0.389-0.084,0.68-0.367,0.8-0.72
		c0.255,0.271,0.64,0.406,1.026,0.321c0.592-0.128,0.967-0.715,0.838-1.306C27.697,28.502,27.398,28.205,27.033,28.093z
		 M100.575,35.491c7.361,0,13.351,5.987,13.351,13.349c0,7.36-5.988,13.347-13.351,13.347c-7.358,0-13.348-5.986-13.348-13.347
		C87.228,41.478,93.216,35.491,100.575,35.491z M100.575,38.205c-5.863,0-10.633,4.771-10.633,10.634
		c0,5.863,4.77,10.633,10.633,10.633s10.635-4.771,10.635-10.633C111.21,42.976,106.438,38.205,100.575,38.205z M112.153,85.699
		c0,7.359-5.988,13.35-13.349,13.35s-13.349-5.99-13.349-13.35s5.988-13.35,13.349-13.35S112.153,78.338,112.153,85.699z
		 M109.438,85.699c0-5.863-4.771-10.635-10.634-10.635c-5.863,0-10.634,4.771-10.634,10.635s4.771,10.634,10.634,10.634
		C104.667,96.333,109.438,91.562,109.438,85.699z M85.247,20.29c1.146-0.261,1.908-1.209,1.701-2.119V9.804l6.684-2.043
		l-0.016,9.201c-0.301-0.045-0.621-0.041-0.949,0.033c-1.146,0.26-1.906,1.209-1.699,2.119c0.207,0.909,1.303,1.436,2.447,1.176
		c1.146-0.261,1.908-1.209,1.701-2.119l0.021-12.44l-9.69,2.962v8.269c-0.299-0.044-0.619-0.04-0.947,0.034
		c-1.146,0.26-1.905,1.209-1.699,2.119C83.006,20.024,84.103,20.55,85.247,20.29z M14.942,29.104v0.591
		c0,0.306,0.25,0.555,0.556,0.555s0.556-0.249,0.556-0.555v-0.591h0.496c0.306,0,0.555-0.249,0.555-0.555
		c0-0.307-0.249-0.555-0.555-0.555h-0.496v-0.402c0-0.306-0.25-0.556-0.556-0.556s-0.556,0.25-0.556,0.556v0.402h-0.494
		c-0.307,0-0.556,0.248-0.556,0.555c0,0.306,0.249,0.555,0.556,0.555H14.942z M26.589,28.569c-0.313,0.069-0.512,0.379-0.442,0.691
		c0.067,0.313,0.378,0.512,0.69,0.443s0.512-0.379,0.443-0.691C27.21,28.7,26.902,28.5,26.589,28.569z M24.604,28.244
		c0.313-0.068,0.511-0.378,0.443-0.691c-0.068-0.312-0.378-0.511-0.69-0.442c-0.313,0.067-0.512,0.379-0.444,0.69
		C23.981,28.113,24.291,28.312,24.604,28.244z M26.431,27.845c0.313-0.069,0.512-0.379,0.443-0.691
		c-0.068-0.313-0.378-0.512-0.691-0.442c-0.313,0.067-0.511,0.378-0.443,0.689C25.808,27.713,26.119,27.913,26.431,27.845z
		 M24.763,28.969c-0.314,0.067-0.512,0.378-0.443,0.689c0.067,0.313,0.377,0.512,0.689,0.444c0.313-0.068,0.512-0.38,0.443-0.691
		C25.385,29.099,25.076,28.9,24.763,28.969z M25.205,28.492c0.181,0.056,0.345,0.156,0.474,0.293
		c0.062-0.18,0.168-0.337,0.309-0.464c-0.18-0.056-0.344-0.155-0.473-0.292C25.453,28.207,25.347,28.366,25.205,28.492z
		 M93.762,43.527l10.933-2.767c0.498-0.128,1.028,0.19,1.155,0.689l0.347,1.367c0.062,0.247,0.023,0.503-0.104,0.721
		c-0.132,0.219-0.339,0.373-0.586,0.436l-8.521,2.157l-0.029,0.05l-0.053-0.03l-0.267,0.069h9.437c0.524,0,0.952,0.427,0.952,0.95
		v7.001c0,0.524-0.428,0.95-0.952,0.95H94.417c-0.523,0-0.951-0.426-0.951-0.95v-7.001c0-0.245,0.098-0.467,0.252-0.638
		c-0.143-0.123-0.252-0.288-0.301-0.481l-0.346-1.368c-0.062-0.246-0.023-0.502,0.104-0.721
		C93.308,43.744,93.515,43.588,93.762,43.527z M102.603,48.538h3.364v-1.262h-2.101L102.603,48.538z M98.122,48.538h2.983
		l1.265-1.263h-2.986L98.122,48.538z M94.524,47.276v1.263h2.102l1.264-1.263H94.524z M101.946,43.784l3.198-0.81l-0.295-1.167
		l-2.089,0.53L101.946,43.784z M97.702,44.856l2.826-0.714l0.814-1.445l-2.827,0.716L97.702,44.856z M94.122,44.526l0.295,1.163
		l1.867-0.474l0.813-1.443L94.122,44.526z M99.343,81.407c1.126,0,1.871,0.28,2.215,0.446l0.832,0.406l0.842-2.841l-0.572-0.301
		c-0.375-0.196-1.455-0.653-3.373-0.653c-4.358,0-7.403,3.061-7.403,7.442c0,4.373,2.767,7.198,7.048,7.198
		c1.456,0,2.839-0.256,3.697-0.686l0.568-0.283l-0.738-2.841l-0.86,0.419c-0.562,0.272-1.476,0.447-2.328,0.447
		c-2.599,0-4.088-1.57-4.088-4.312C95.181,83.028,96.698,81.407,99.343,81.407z M31.304,85.786c0,7.36-5.988,13.349-13.349,13.349
		S4.606,93.146,4.606,85.786s5.988-13.349,13.349-13.349S31.304,78.426,31.304,85.786z M28.589,85.786
		c0-5.862-4.771-10.634-10.634-10.634S7.322,79.922,7.322,85.786s4.771,10.633,10.634,10.633
		C23.819,96.419,28.589,91.648,28.589,85.786z M21.754,79.764c2.473,0,4.313,1.441,4.39,1.504l0.132,0.104v8.493v0.805v0.434H19.06
		l-1.217-0.521l-1.217,0.521H9.634V90.67v-0.24v-9.058l0.132-0.104c0.077-0.062,1.916-1.504,4.39-1.504
		c1.354,0,2.631,0.435,3.8,1.293C19.124,80.198,20.402,79.764,21.754,79.764z M25.58,81.715c-0.442-0.309-1.954-1.257-3.825-1.257
		c-1.277,0-2.484,0.44-3.584,1.308l-0.216,0.17l-0.215-0.17c-1.1-0.867-2.307-1.308-3.584-1.308c-1.871,0-3.383,0.948-3.825,1.257
		v7.768c0.799-0.389,2.409-1.043,4.17-1.043c1.333,0,2.493,0.377,3.455,1.121c0.962-0.744,2.122-1.121,3.455-1.121
		c1.706,0,3.265,0.613,4.087,1.004c0.027,0.014,0.053,0.025,0.078,0.037c0.002,0,0.004,0.002,0.005,0.002L25.58,81.715L25.58,81.715
		z M17.782,88.059h0.348v-5.39h-0.348V88.059z"/>
</g>
</svg>