<?xml version="1.0" ?>
<!-- Uploaded to: SVG Repo, www.svgrepo.com, Generator: SVG Repo Mixer Tools -->
<svg width="800px" height="800px" viewBox="0 0 128 128" xmlns="http://www.w3.org/2000/svg">
<defs>
<style>.cls-1{fill:#40c4ff;}.cls-2{fill:#80d8ff;}.cls-3{fill:#f0faff;}.cls-4{fill:#ffffff;}.cls-5,.cls-6{fill:none;stroke:#000000;stroke-linecap:round;stroke-linejoin:round;stroke-width:4px;}.cls-6{stroke-dasharray:104 8 0.25 8 1000;}</style>
</defs>
<g data-name="02 park bench" id="_02_park_bench">
<path class="cls-1" d="M12.13,65.88l.75-12a2,2,0,0,1,2-1.88h98.24a2,2,0,0,1,2,1.88l.75,12a2,2,0,0,1-2,2.12H14.13A2,2,0,0,1,12.13,65.88Z"/>
<path class="cls-2" d="M15.41,44h97.18a2,2,0,0,0,2-2.37l-2.25-12a2,2,0,0,0-2-1.63H17.66a2,2,0,0,0-2,1.63l-2.25,12A2,2,0,0,0,15.41,44Z"/>
<path class="cls-3" d="M124,84H4V80a4,4,0,0,1,4-4H120a4,4,0,0,1,4,4ZM74,112a19.88,19.88,0,0,1-8.81-2L32.81,94A20,20,0,0,0,4,112Zm45-82.7a6.68,6.68,0,0,0-6.77-6.3H32a8,8,0,0,0-8,8v1a4,4,0,0,0,4,4A8,8,0,0,1,36,44.9,8.14,8.14,0,0,1,27.77,52H15.28a4,4,0,1,0-.16,8h11a8,8,0,0,1,7.5,5.23A4.1,4.1,0,0,0,37.41,68H78.23V57.15H74V52H72.27A8.18,8.18,0,0,1,64,44.53,8,8,0,0,1,72,36h40.5A6.5,6.5,0,0,0,119,29.3Z"/>
<path class="cls-4" d="M94.6,38.53a14,14,0,1,0-8-.24A20,20,0,0,0,81.27,76H98.73A20,20,0,0,0,94.6,38.53Z"/>
<path class="cls-5" d="M25,44l-.5,8M23,76l.5-8m83.82,0h6.55a2,2,0,0,0,2-2.12l-.75-12a2,2,0,0,0-2-1.88h-4M12.56,59.07l-.43,6.81a2,2,0,0,0,2,2.12H37.41m66.87-24h8.31a2,2,0,0,0,2-2.37l-1.07-5.7M24.58,28H17.66a2,2,0,0,0-2,1.63l-2.25,12a2,2,0,0,0,2,2.37H36m39.72,0H64M18,98a23.93,23.93,0,0,0-3.26-12.09A3.94,3.94,0,0,0,11.32,84m105.36,0a3.94,3.94,0,0,0-3.42,1.91A24,24,0,0,0,114.5,112M124,80a4,4,0,0,0-4-4H8a4,4,0,0,0-4,4v4H124ZM82.34,36H72a8,8,0,0,0-8,8.53A8.12,8.12,0,0,0,71,51.9M99.66,36H112.5a6.5,6.5,0,0,0,6.5-6.7,6.68,6.68,0,0,0-6.77-6.3h-7.37M77.14,23H32a8,8,0,0,0-8,8v1a4,4,0,0,0,4,4A8,8,0,0,1,36,44.9,8.14,8.14,0,0,1,27.77,52H15.28a4,4,0,1,0-.16,8h11a8,8,0,0,1,7.5,5.23A4.1,4.1,0,0,0,37.41,68H72.68M94.6,38.53a14,14,0,1,0-8-.24M98.73,76A20,20,0,0,0,94.6,38.53l-8-.24A20,20,0,0,0,81.27,76M85,22h.25M93,22h.25"/>
<path class="cls-6" d="M74,112a19.88,19.88,0,0,1-8.81-2L32.81,94A20,20,0,0,0,4,112Z"/>
</g>
</svg>