<?xml version="1.0" encoding="utf-8"?>
<!-- Uploaded to: SVG Repo, www.svgrepo.com, Generator: SVG Repo Mixer Tools -->
<svg width="800px" height="800px" viewBox="0 0 1024 1024" class="icon"  version="1.1" xmlns="http://www.w3.org/2000/svg"><path d="M493.726774 631.942788H275.104089c-11.376333 0-20.599644 9.223312-20.599644 20.599644v208.654486c0 11.377055 9.223312 20.600367 20.599644 20.600367h218.622685c11.376333 0 20.599644-9.223312 20.599645-20.600367V652.542432c0-11.377055-9.223312-20.599644-20.599645-20.599644zM748.895911 142.203437H530.273948c-11.376333 0-20.599644 9.222589-20.599644 20.599645v208.654486c0 11.377055 9.223312 20.599644 20.599644 20.599644h218.621963c11.377055 0 20.600367-9.222589 20.600366-20.599644V162.803082c-0.000722-11.377055-9.223312-20.599644-20.600366-20.599645z" fill="#609AEE" /><path d="M1002.735664 386.741128h-218.62124c-7.460435 0-13.99536 3.965749-17.609257 9.90462-3.615342-5.938871-10.149544-9.90462-17.609979-9.90462H530.273948c-8.208935 0-15.295843 4.803116-18.605571 11.752028-3.310451-6.948912-10.395913-11.752028-18.605571-11.752028H274.440121c-7.461158 0-13.99536 3.965749-17.60998 9.90462-3.614619-5.938871-10.148822-9.90462-17.609979-9.90462H20.599644C9.222589 386.741128 0 395.963717 0 407.340773V615.995259c0 11.376333 9.223312 20.599644 20.600367 20.599644h218.62124c7.461158 0 13.99536-3.966472 17.609979-9.905342 3.614619 5.938871 10.148822 9.905342 17.60998 9.905342H493.063528c8.209658 0 15.295843-4.803116 18.605571-11.75275 3.310451 6.948912 10.396636 11.75275 18.605572 11.75275h218.621962c7.460435 0 13.994638-3.966472 17.609979-9.905342 3.613897 5.938871 10.148822 9.905342 17.609257 9.905342h218.62124c11.377055 0 20.600367-9.223312 20.600367-20.599644V407.340773c-0.001445-11.377055-9.224757-20.599644-20.601812-20.599645z" fill="#CBCED3" /></svg>