<?xml version="1.0" encoding="utf-8"?>
<!-- Uploaded to: SVG Repo, www.svgrepo.com, Generator: SVG Repo Mixer Tools -->
<svg width="800px" height="800px" viewBox="0 -1 1026 1026" class="icon"  version="1.1" xmlns="http://www.w3.org/2000/svg"><path d="M750.404167 87.754167c-201.725-0.825-254.404167 150.704167-147.991667 329.520833 128.745833-57.9875 181.0625-155.429167 147.991667-329.520833z" fill="#EDE022" /><path d="M200.1375 122.241667L33.958333 396.608333l-2.125 385.033334 147.283334 0.708333c62.004167-127.320833 151.8875-207.1625 276.020833-228.1875l1.770833-430.858333-256.770833-1.0625z m200.55 294.208333l-293.495833-1.183333 129.329166-219.5625 165 0.708333-0.833333 220.0375z" fill="#00A2E9" /><path d="M398.3 776.933333m-123.241667 0a123.241667 123.241667 0 1 0 246.483334 0 123.241667 123.241667 0 1 0-246.483334 0Z" fill="#00A2E9" /><path d="M173.1375 775.783333H-0.004167l0.495834-405.429166 172-286.545834h281.629166v460.2125l-13.1625 2.283334c-115.366667 20-201.558333 92.125-263.4875 220.504166l-4.333333 8.975z m-141.354167-31.75h121.508334c63.2625-126.133333 153.695833-202.254167 269.079166-226.491666V115.558333H190.4625L32.229167 379.166667l-0.445834 364.866666z" fill="#332C2B" /><path d="M399.083333 408.941667H62.0625l146.908333-251.7875h190.108334v251.7875z m-281.733333-31.754167h249.983333V188.904167h-140.125L117.35 377.1875zM382.2625 891.645833c-76.091667 0-138-61.904167-138-137.995833 0-76.095833 61.904167-138 138-138 76.095833 0 138 61.904167 138 138-0.004167 76.091667-61.908333 137.995833-138 137.995833z m0-244.25c-58.5875 0-106.25 47.6625-106.25 106.254167 0 58.5875 47.6625 106.25 106.25 106.25s106.25-47.6625 106.25-106.25c0-58.591667-47.666667-106.254167-106.25-106.254167zM578.6125 413.375l-7.291667-12.1375c-60.266667-100.341667-73.058333-196.375-35.0875-263.475 33.05-58.404167 102.441667-90.570833 195.395834-90.570833h13.0875l2.5 12.845833c17.383333 89.475 12.925 160.779167-13.633334 217.979167-25.7 55.3625-72.175 97.720833-142.079166 129.491666l-12.891667 5.866667z m139.841667-334.204167c-75.225 2.6375-128.520833 28.166667-154.5875 74.229167-30.691667 54.241667-20.604167 133.520833 27.445833 219.054167 114.25-56.8125 152.7375-145.741667 127.141667-293.283334zM835.575 166.679167l183.291667 36.616666-6.216667 31.133334-183.291667-36.616667zM794.283333 315.116667l146.804167 82.5625-15.5625 27.666666-146.804167-82.5625zM716.175 428.7l109.9625 128.2625-24.104167 20.666667-109.966666-128.2625z" fill="#332C2B" /></svg>