<?xml version="1.0" ?>
<!-- Uploaded to: SVG Repo, www.svgrepo.com, Generator: SVG Repo Mixer Tools -->
<svg width="800px" height="800px" viewBox="0 0 56 56" xmlns="http://www.w3.org/2000/svg">
<defs>
<style>.cls-1{fill:#231f20;}</style>
</defs>
<title/>
<g data-name="15 Flowerhorn Fish" id="_15_Flowerhorn_Fish">
<path class="cls-1" d="M12,27a3,3,0,1,0,3,3A3,3,0,0,0,12,27Zm0,4a1,1,0,1,1,1-1A1,1,0,0,1,12,31Z"/>
<path class="cls-1" d="M17,30a1,1,0,0,0,0,2,1,1,0,0,1,0,2,1,1,0,0,0,0,2,3,3,0,0,0,0-6Z"/>
<path class="cls-1" d="M53,39a1,1,0,0,0,.53-.15A1,1,0,0,0,54,38V22a1,1,0,0,0-1.45-.89L44.37,25.2l9.3-8.46A1,1,0,0,0,53,15H24a6,6,0,0,0-5.9,5h-.16A8.26,8.26,0,0,0,18,19,8,8,0,1,0,6.72,26.29,10,10,0,0,0,16,40h2.09A6,6,0,0,0,24,45H53a1,1,0,0,0,.67-1.74l-9.3-8.46,8.18,4.09A1,1,0,0,0,53,39ZM24,17H50.41l-8.13,7.4A10,10,0,0,0,34,20H20.14A4,4,0,0,1,24,17ZM4,19a6,6,0,1,1,6,6A6,6,0,0,1,4,19ZM8,30a7.89,7.89,0,0,1,.65-3.12A8.58,8.58,0,0,0,10,27a8,8,0,0,0,7.41-5H34a8,8,0,0,1,7,4.2.89.89,0,0,0,.22.47h0a7.91,7.91,0,0,1,0,6.64h0a.89.89,0,0,0-.22.47A8,8,0,0,1,34,38H16A8,8,0,0,1,8,30ZM24,43a4,4,0,0,1-3.85-3H34a10,10,0,0,0,8.28-4.4L50.41,43Zm28-6.62-8-4V27.62l8-4Z"/>
<path class="cls-1" d="M34,31h3v1a1,1,0,0,0,2,0V31a1,1,0,0,0,0-2V28a1,1,0,0,0-2,0v1H34V28a1,1,0,0,0-2,0v1H28V28a1,1,0,0,0-2,0v1H23V28a1,1,0,0,0-2,0v1a1,1,0,0,0,0,2v1a1,1,0,0,0,2,0V31h3v1a1,1,0,0,0,2,0V31h4v1a1,1,0,0,0,2,0Z"/>
</g>
</svg>