<?xml version="1.0" encoding="utf-8"?>
<!-- Uploaded to: SVG Repo, www.svgrepo.com, Generator: SVG Repo Mixer Tools -->
<svg width="800px" height="800px" viewBox="0 0 1024 1024" class="icon"  version="1.1" xmlns="http://www.w3.org/2000/svg"><path d="M833.6 958.6H243.8c-7.7 0-14-6.2-14-14V98.8c0-8.3 6.8-15.1 15.1-15.1h588.6c7.7 0 14 6.3 14 14v847c0 7.7-6.2 13.9-13.9 13.9z" fill="#CE3315" /><path d="M792.9 958.6H254.1c-7.4 0-13.4-6-13.4-13.4V98.3c0-8 6.6-14.6 14.6-14.6h536.5c8 0 14.6 6.5 14.6 14.6v846.9c-0.1 7.4-6.1 13.4-13.5 13.4z" fill="#AF1635" /><path d="M808.1 926.8H217.4c-7.4 0-13.5-6-13.5-13.5V131.5c0-7.4 6-13.5 13.5-13.5h590.7c7.4 0 13.5 6 13.5 13.5v781.9c-0.1 7.4-6.1 13.4-13.5 13.4z" fill="#FAECC7" /><path d="M229.1 926.8v-752c0-15.7 12.7-28.4 28.4-28.4L792 118s15.7 3.8 15.7 30.7v778.1s-578.6 15.7-578.6 0z" fill="#CCA66A" /><path d="M794.1 116.4v812c0 16.7-13.6 30.3-30.3 30.3H206.7c-16.7 0-30.3-13.5-30.3-30.3v-812c0-16.7 13.5-32.7 30.3-32.7h557.2c16.7 0 30.2 16 30.2 32.7z" fill="#F35426" /><path d="M176.5 83.5h59.9v874.9h-59.9z" fill="#E73838" /><path d="M224.1 83.5h18v874.9h-18z" fill="#E73838" /><path d="M241.9 83.5h10.6v874.9h-10.6z" fill="#AF1635" /><path d="M426.8 281.2l1.8-197.9H274.9l-0.9 36.9v161h1.5l67.6-48.4 82.3 48.4z" fill="#9399BA" /><path d="M411.5 75.5V256h-1.4l-77.9-46-64.2 46h-1.4V75.5z" fill="#FACD11" /><path d="M425.4 83.3c-0.1 0.3-5.4 0.2-14-0.1-36.8-1.1-133.5-6-133.5-5.5-3.8 2.3-11.4 1.7-11.4-2.3 0-7.5 8.3-10.1 12-10.1h138.1c5.9 0.1 11.8 6.5 8.8 18z" fill="#FACD11" /><path d="M372.6 579c8.8 0.4 17 4.7 22.3 11.8 8.8 10.9 22 17.2 36.1 17.4 14-0.2 27.1-6.6 36-17.4 5.2-7.2 13.5-11.5 22.4-11.8 8.8 0.4 17 4.7 22.3 11.8 8.7 11 22 17.5 36.1 17.5 14.1 0 27.3-6.4 36.1-17.5 5.1-7.3 13.4-11.7 22.3-11.7s17.2 4.4 22.3 11.7c8.8 10.8 22 17.2 36 17.4 5.4 0 9.7-4.4 9.7-9.7 0-5.4-4.4-9.7-9.7-9.7-8.8-0.4-17-4.7-22.3-11.8-8.7-11-22-17.5-36.1-17.5-14.1 0-27.3 6.4-36.1 17.5-5 7.4-13.4 11.8-22.3 11.8s-17.3-4.4-22.3-11.8c-8.7-11-22-17.4-36-17.4s-27.3 6.4-36 17.4c-5.2 7.2-13.4 11.5-22.3 11.8-8.8-0.4-17-4.7-22.3-11.8-8.8-10.9-22-17.2-36.1-17.4-5.4 0-9.7 4.4-9.7 9.7-0.1 5.4 4.2 9.7 9.6 9.7z m0 0" fill="#FACD11" /><path d="M664.2 637.3c-8.8-0.4-17-4.7-22.3-11.8-8.7-11-22-17.5-36.1-17.5-14.1 0-27.3 6.4-36.1 17.5-5 7.4-13.4 11.8-22.3 11.8s-17.3-4.4-22.3-11.8c-8.7-11-22-17.4-36-17.4s-27.3 6.4-36 17.4c-5.2 7.2-13.4 11.5-22.3 11.8-8.8-0.4-17-4.7-22.3-11.8-8.8-10.9-22-17.2-36.1-17.4-5.4 0-9.7 4.4-9.7 9.7 0 5.4 4.4 9.7 9.7 9.7 8.8 0.4 17 4.7 22.3 11.8 8.8 10.9 22 17.2 36.1 17.4 14-0.2 27.1-6.6 36-17.4 5.2-7.2 13.5-11.5 22.4-11.8 8.8 0.4 17 4.7 22.3 11.8 8.7 11 22 17.5 36.1 17.5 14.1 0 27.3-6.4 36.1-17.5 5.1-7.3 13.4-11.7 22.3-11.7s17.2 4.4 22.3 11.7c8.8 10.8 22 17.2 36 17.4 5.4 0 9.7-4.4 9.7-9.7-0.1-5.3-4.5-9.7-9.8-9.7zM426.9 481.4c0.1 25.6-5.7 51-16.9 74.1-2.2 4.8-0.1 10.4 4.6 12.7 4.7 2.3 10.4 0.4 12.9-4.3 12.5-25.7 18.9-53.9 18.9-82.5 0-40.4-13-79.7-37-112.2 11.9-2.6 24.1-3.9 36.3-3.9 92.2-0.4 167.8 73 169.9 165.2 0 5.4 4.4 9.7 9.7 9.7 5.4 0 9.7-4.4 9.7-9.7-2.1-102.9-86.4-185.1-189.3-184.6-19 0-37.9 2.8-56.1 8.5-3.1 1-5.6 3.5-6.5 6.6-0.9 3.2-0.1 6.6 2 9 27 30.8 41.8 70.4 41.8 111.4z m0 0" fill="#FACD11" /></svg>