<?xml version="1.0"?>
<svg xmlns:rdf="http://www.w3.org/1999/02/22-rdf-syntax-ns#" xmlns="http://www.w3.org/2000/svg" xmlns:cc="http://web.resource.org/cc/" xmlns:xlink="http://www.w3.org/1999/xlink" xmlns:dc="http://purl.org/dc/elements/1.1/" id="fighting_crackers_xA0_Image_1_" style="enable-background:new 0 0 193.68 211.92" xml:space="preserve" viewBox="0 0 193.68 211.92" version="1.1" y="0px" x="0px">
<g clip-rule="evenodd" fill-rule="evenodd">
	<path d="m133.68 26.16c0.446 1.171-2.048 1.467-2.399 2.64-2.138 0.263-3.206 1.594-5.04 2.16-0.655 0.705-1.424 1.297-2.16 1.92-1.051-0.147-1.481-0.225-2.16 0-0.627 0.413 0.339 1.243 0 2.16-1.666-1.174-0.829-4.588 0-6 0.757 0.851-0.676 1.554-0.24 2.88 2.37-0.247 3.561-2.605 5.761-3.36 0.638-0.219 1.494-0.031 2.159-0.24 1.5-0.469 2.9-1.299 4.08-2.16z"/>
	<path d="m119.28 30.96c0.607 1.04 1.349 3.067 0.96 4.32-1.24-0.521-0.53-2.99-0.96-4.32z"/>
	<path d="m127.44 31.92c0.512-0.112 0.457 0.343 0.479 0.72 0.914 0.114 1.498-0.102 1.68-0.72 0.474 0.189 0.863 1.84 0.48 2.201-0.673-0.287-1.656-0.264-2.64-0.24v-1.961z"/>
	<path d="m128.4 49.44c-1.238-1.229-2.073-2.965-4.32-3.36-1.215-0.213-3.07-0.061-4.08 0.48-1.199 0.642-1.384 2.113-2.64 2.64 0.604-3.146 1.55-6.557 5.279-6.24 2.95 0.25 4.98 4.185 5.76 6.48zm-8.16-4.56c0.881-0.399 2.509-0.051 2.88-0.96-0.98-0.545-2.88-0.24-2.88 0.96z"/>
	<path d="m180.72 72.48c-5.604 2.957-11.339 5.781-17.52 8.16-0.934-0.41 1.189-1.514 1.92-1.92 1.116-0.621 2.53-1.071 3.36-1.44 2.536-3.144 8.023-3.335 11.76-5.28 0.41-0.088 0.45 0.187 0.48 0.48z"/>
	<path d="m15.12 73.92c0.388-0.067 0.413 0.227 0.72 0.24 2.369 3.631 5.302 6.698 8.16 9.84 1.108 1.198 2.351 2.566 3.6 3.84 1.128 1.152 2.873 2.243 2.88 3.84-3.115-1.13-4.605-4.013-6.72-6.48-2.787-3.251-5.499-6.894-8.4-10.32-0.186-0.213-0.258-0.542-0.24-0.96z"/>
	<path d="m162.24 80.88c-0.688 1.151-2.218 1.463-3.601 1.92 0.84-1 2.28-1.404 3.6-1.92z"/>
	<path d="m29.52 82.56c1.87 1.01 2.798 2.961 3.6 5.04-1.676-1.204-3.035-2.725-3.6-5.04z"/>
	<path d="m165.12 84.96c-2.075 0.744-4.512 2.343-7.2 1.68 0.945-2.015 4.863-1.057 6.72-2.16 0.41-0.088 0.45 0.187 0.48 0.48z"/>
	<path d="m173.52 90.96c-1.812 0.58-5.236-0.155-8.64 0-1.794 0.082-3.84 0.822-5.04-0.24 0.954-1.064 3.256-1.025 5.04-0.96 2.93 0.107 6.38 0.528 8.64 1.2z"/>
	<path d="m104.64 90c3.094 0.906 7.653 0.347 9.841 2.16-3.621 1.059-6.102-1.098-9.36-1.2 0-0.477-0.66-0.305-0.48-0.96z"/>
	<path d="m24.48 92.64c2.644 0.876 4.309 2.731 6 4.56-2.785-0.735-4.577-2.463-6-4.56z"/>
	<path d="m158.16 95.76c4.934 0.596 9.396 5.5 12.96 8.88 0.131 1.069 0.684 1.716 1.439 2.16-1.576 0.154-2.465-1.81-3.6-2.88-0.946-0.892-2.212-1.251-2.64-2.4-3.04-1.603-5.75-3.529-8.16-5.76z"/>
	<path d="m29.04 98.64c-1.641 1.731-6.059 0.253-9.12 0.48-0.039-0.279 0.053-0.427 0.24-0.48 2.97-0.491 6.198-0.199 8.88 0z"/>
	<path d="m11.04 102c-1.46 0.913-4.86 0.436-6.72 0.24 2.005-0.3 4.839-0.56 6.72-0.24z"/>
	<path d="m16.56 102.24c-0.883 0.489-3.218 0.57-4.08 0 0.757-1.1 2.652 0.23 4.08 0z"/>
	<path d="m32.16 102.96c-1.212 1.871-3.693 0.791-5.28 0.72-1.235-0.056-2.547 0.321-3.84 0.24-2.221-0.139-4.04-0.982-6-1.2 0.483-1.5 2.087-0.507 3.12-0.48 3.639 0.09 8.067 0.34 12 0.72z"/>
	<path d="m119.76 106.56c-1.557 3.324-3.692 6.067-6 8.64-0.654-1.194 0.638-1.928 1.2-2.88 1.23-2.08 2.29-4.81 4.8-5.76z"/>
	<path d="m23.52 108.24c-1.092 1.787-3.513 2.247-5.04 3.6-0.122-0.664 2.345-2.82 3.6-3.36 0.387-0.17 1.024-0.14 1.44-0.24z"/>
	<path d="m69.36 116.16c1.096 0.264 2.191 0.529 2.4 1.68-0.991-0.37-2.085-0.64-2.4-1.68z"/>
	<path d="m62.4 118.56c0.039-0.281 0.438-0.202 0.72-0.239 3.122 3.838 7.292 6.628 10.08 10.8-3.804-3.32-7.49-6.75-10.8-10.56z"/>
	<path d="m66.48 118.32h0.48c2.389-0.229 3.724 2.613 5.76 3.12 2.788 0.693 5.602 1.509 8.64 2.399-1.407-0.191-3.216-0.1-4.8-0.479-0.615-0.148-1.072-0.786-1.68-0.96-1.127-0.324-2.357-0.166-3.36-0.48-2.145-0.67-3.918-2.17-5.04-3.6z"/>
	<path d="m159.6 150.48c2.776 2.024 8.667 0.934 12.48 1.921-0.034 1.216-1.679 1.038-2.16 0.239-0.571 0.31-1.145 0.615-1.68 0.96-0.5-0.141-0.776-0.504-1.2-0.72-2.156 1.099-5.839 0.581-7.92 0.96 0.38-0.9 0.03-2.53 0.48-3.36z"/>
	<path d="m192.72 151.68c0.115 0.755-0.342 0.938-0.479 1.44-1.125 0.245-1.365-0.396-1.92-0.72 0.24-0.75 1.57-1.31 2.4-0.72z"/>
	<path d="m175.2 152.4c0.03 0.43-0.294 0.506-0.24 0.96-0.72-0.865-2.314 0.915-2.64-0.96 1.26-0.3 1.95-0.14 2.88 0z"/>
	<path d="m188.4 152.4c-0.385 0.889-2.527 0.907-3.12 0.239-1.147 0.575-3.13 0.501-4.32 0.48 0.406-1.796 2.813-0.812 4.56-0.72 1.11 0.06 2.01-0.05 2.88 0z"/>
	<path d="m175.92 152.4c1.697 0.081 2.207 0.18 3.84 0 0.114 0.753-0.299 0.98-0.72 1.199-1.09-1.002-1.181-0.266-2.88-0.239 0.03-0.43-0.29-0.51-0.24-0.96z"/>
	<path d="m20.88 170.64c3.877 1.723 7.632 3.568 12.24 4.561-2.656 1.319-5.535-1.145-8.16-1.44v-0.96c-1.856 0.5-3.427-0.73-4.08-2.16z"/>
	<path d="m26.88 170.64c1.183 0.131 2.268 0.395 3.36 0.721 0.889 0.265 2.085 0.491 2.64 1.199-2.354-0.29-4.75-0.53-6-1.92z"/>
	<path d="m135.36 175.2c-3.94-0.301-7.649-0.832-10.561-2.16-0.039-0.279 0.053-0.427 0.24-0.48 1.935 0.306 3.753 0.727 5.04 1.681 0.97-0.122 1.974 0.108 2.88 0.24 0.77 0.11 2.08-0.02 2.4 0.72z"/>
	<path d="m133.92 124.8c-3.693 0.253-7.471-1.488-11.28-1.92-0.791 0.358 0.804 0.283 0.48 0.96-1.234 1.828-1.13 3.771-1.44 6.72-0.095 0.909-0.591 1.712-0.72 2.641-0.343 2.467-0.059 5.218-0.24 7.92-0.438 6.541-1.755 12.761-1.439 18.479 2.523 2.357 6.427 3.333 9.6 5.04-2.973-0.077-6.574-2.852-10.08-2.399 0.033 2.32 2.667 2.91 4.32 3.6 1.874 0.782 3.861 1.386 5.52 2.16-3.26 0.219-6.279-1.879-9.6-2.4 0.014 1.213 1.699 1.482 2.64 1.92 0.893 0.416 1.927 1.128 2.88 1.44 2.78 0.91 6.223 0.747 8.16 2.64-1.396 0.621-2.89-0.157-3.84-0.72-2.831 0.19-3.699-1.581-6.24-1.68-0.561-1.04-3.469-2.199-4.319-0.72 0.517 2.389 5.465 2.408 5.76 4.56-1.692-0.004-3.536-1.458-5.521-1.92-0.271 2.538-1.089 6.214 0.96 7.2 0.954-0.727 0.329-3.032 0.961-4.08 0.965 2.127-0.796 6.618 3.119 6.24 0.375-1.626 0.457-3.544 0.48-5.521 1.405 1.075 0.451 4.509 1.2 6.24 0.747 0.293 1.342 0.737 2.399 0.72 0.479-1.521 0.216-3.784 0.721-5.28 0.925 1.115 0.219 4.174 0.479 5.28 0.604 0.676 1.778 0.782 3.12 0.72 0.612-1.868-0.087-5.047 0.48-6.96 1.109 2.286 0.469 5.055 1.199 7.44 0.586 0.534 1.714 0.526 2.88 0.479 0.754-2.107-0.446-4.684 0.24-6.239 0.91 1.33 1.065 3.414 0.96 5.76 0.438 0.366 1.963 0.366 2.4 0 0.609-2.01-0.33-4.441 0-6.96 1.078 0.296 0.823 2.032 0.96 3.12 0.165 1.316 0.171 2.61 0.479 3.6 0.823 0.32 1.882-0.279 2.881-0.479v-6.48c1.232 1.087 0.763 3.877 0.96 6 0.568 0.438 1.388 0.626 2.159 0.24 1.271-1.209 0.846-4.114 0.96-6.48 1.322 0.679 0.739 3.262 0.96 5.04h1.44c0.737-0.678 0.435-2.407 0.48-3.84 0.037-1.171 0.669-2.653-0.24-3.36-3.39 0.715-7.123 1.885-10.32 1.2 0.283-1.684 2.749-0.911 4.08-1.2 0.85-0.184 1.594-0.811 2.4-0.96 2.539-0.469 4.099 0.141 6.239-1.199 0.896-0.562 2.097-0.741 1.681-2.16-3.627-0.22-5.374 2.093-10.08 1.68 1.135-1.288 3.441-0.995 5.28-1.439 1.735-0.421 3.687-1.051 4.319-2.4-0.684-0.712-1.688 0.228-2.64 0.479-0.884 0.234-1.826 0.296-2.88 0.48-2.072 0.363-4.573 1.208-6.48 1.2-0.771-0.003-2.288 0.155-2.64-0.96 1.836 0.008 3.97-0.335 6-0.721 0.536-0.102 1.124-0.374 1.68-0.479 2.86-0.543 7.26 0.3 7.2-3.36-3.352 0.028-7.606 2.455-11.521 1.92 1.649-1.379 4.137-1.037 6.24-1.68 2.042-0.624 3.682-1.815 5.28-2.64 1.114-6.741 1.735-15.077 2.16-22.561 0.083-1.459 0.502-2.911 0.479-4.319-0.019-1.155-0.458-2.229-0.479-3.36-0.047-2.41 0.912-4.88-0.48-6.96-6.68 0.7-11.166 2.647-18.239 1.2 6.594-0.286 12.746-1.014 17.039-3.601 0.172-2.011-0.956-2.723-1.92-3.6-1.885 1.074-5.338 0.582-7.68 1.2 3.165-1.149 7.489-2.801 9.12-6.24-3.511 0.09-5.406 1.794-9.36 1.439 3.646-1.312 7.762-2.158 10.801-4.079 1.269-4.1 0.195-10.737 0-15.121 0.709 1.232 1.035 2.924 1.439 4.56 0.365 1.476 0.998 3.126 1.2 4.56 0.704 5.004-0.883 9.033-3.12 12.24 0.205 1.717 2.387 2.275 3.12 3.84 0.644 1.373 0.72 4.193 0.72 6 0 7.756-1.227 18.861-1.92 28.32-0.21 2.867-0.622 4.704-0.96 8.4-0.107 1.178-0.746 2.256-0.72 3.12 0.034 1.111 0.919 2.133 0.96 3.12 0.039 0.954-0.582 1.686-0.72 2.64-0.158 1.089 0.17 2.53 0 3.84-0.152 1.166-0.76 2.418-0.721 3.12 0.052 0.912 0.801 2.32 1.2 3.12 1.032 2.068 2.771 3.949 3.84 5.52 5.005 0.355 7.526 5.621 4.32 9.601-0.667 0.827-1.965 1.245-2.88 2.399-0.824 1.04-0.994 2.612-1.681 3.601-1.094 1.575-3.209 2.277-3.84 3.12-3.078 0.163-6.733 1.203-8.88-0.24-0.555-0.373-1.53-1.688-1.68-2.4-0.812-3.866 2.822-5.572 5.28-7.439-0.12-2.92 1.168-4.432 2.64-5.761-0.954-3.125-2.982-5.178-4.561-7.68-1.093 0.576-2.438 0.179-3.6 0.48-0.923 0.239-1.604 0.991-2.4 1.199-1.415 0.371-3.262 0.53-4.8 0.48-1.111-0.036-2.542-0.655-4.08 0-1.139 0.099-1.261-0.819-2.399-0.72-2.616 1.208-0.501 4.793 1.439 5.04 2.711 5.475-1.95 7.546-5.279 10.08-1.939 1.476-5.061 4.481-8.4 4.319-2.521-0.122-6.569-3.021-6.96-5.52-0.758-4.849 3.752-7.354 8.4-8.4 1.185-1.135 2.249-2.391 3.359-3.6-0.073-1.193 0.038-2.202 0.24-3.12-0.629-1.412-2.051-0.709-3.12-1.2-1.743-0.8-2.664-2.858-4.32-3.6-0.146-0.858 0.005-1.281-1.199-1.44-0.463-1.687 0.034-3.375 0.239-5.28 0.136-1.258-0.358-2.465-0.239-3.6 0.146-1.392 1.492-3.001 0.239-4.8 1.156-2.691 1.251-6.512 1.2-10.08-0.146-10.384 0.795-23.657 3.84-32.641 1.066-1.013 2.395-1.766 3.36-2.88-0.379-1.898-2.314-3.154-3.12-5.279-1.094-2.888-0.16-6.635-1.439-9.12-2.318 1.408-4.2 3.47-6.48 5.279-2.145 1.702-4.858 3.119-6.72 5.04-1.778 1.837-2.634 4.303-4.32 6-0.879 0.886-4.923 3.905-6.96 2.16-2.223-1.903-0.194-6.318 1.44-7.92 0.739-0.724 1.895-1.081 2.88-1.92 4.521-3.85 6.791-9.801 10.8-13.44-2.091-0.785-4.817 0.616-7.2 1.44-0.892 0.309-1.645 0.606-2.4 0.96-1.756 0.823-4.271 2.512-6.479 2.64 0.966-1.194 2.723-1.597 4.32-2.16 1.148-0.842 2.442-1.503 3.84-2.16 1.134-0.533 2.403-1.467 3.84-1.92 1.935-0.61 4.323-0.046 6.24-0.96 1.164-0.555 5.27-4.26 5.04-6.72-0.106-1.138-4.146-5.146-5.521-6.72-1.585-1.814-3.405-3.178-5.28-4.8-1.152-0.998-2.546-2.222-3.119-3.12-2.371-3.708-0.242-10.146 5.279-7.44 0.92 0.451 3.663 2.639 4.32 3.6 1.01 1.477 0.677 3.439 2.88 4.08 0.44-1.483-0.274-2.748-0.24-4.08 0.118-4.548 3.341-7.612 5.28-10.56-0.117-1.242-1.7-1.02-2.4-1.68-4.117-3.569-4.12-10.542-5.76-16.8-0.506-1.932-1.071-3.779-1.439-5.76-0.54-2.904-1.1-4.804-1.44-8.4-0.169-1.784-1.156-3.287-1.439-4.8-0.151-0.805 0.109-1.805 0-2.64-0.122-0.931-0.766-1.72-0.96-2.64-0.12-0.562 0.103-1.271 0-1.92-0.192-1.208-0.892-2.43-0.961-3.36-0.166-2.245 0.463-4.214 1.44-6 2.63-0.565 5.217-1.841 8.16-2.16 0.686-0.074 1.418 0.137 2.16 0 0.911-0.167 1.679-0.771 2.64-0.96 2.561-0.504 5.323-0.164 7.68-0.72 1.01-0.238 1.919-1.041 2.881-1.2 2.745-0.454 5.595 0.257 7.68 1.44 0.984 2.855 1.417 6.263 3.12 8.4-0.072 2.402 0.461 4.419 1.2 7.44 0.641 2.622 1.45 4.704 1.92 7.92 0.683 4.679 1.905 9.694 2.399 14.4 0.347 3.292 0.512 6.563 0 10.08-0.786 1.442-2.232 3.011-1.92 5.04 0.382 2.481 4.462 4.123 6 6.96 0.316 0.583 0.42 1.468 0.72 2.16 0.753 1.735 1.451 4.726 1.92 7.2 0.486 2.562 0.747 4.906 1.2 7.92 1.22-0.665 1.047-1.858 1.681-2.88 1.287-2.077 3.521-3.518 4.8-5.52 0.802-1.256 0.868-2.874 2.16-3.84 1.252 1.243-1.575 2.156-1.2 4.08-3.036 2.564-4.926 6.274-6.96 9.84-0.513 0.112-0.457-0.343-0.48-0.72-1.082 0.198-1.129 1.431-2.16 1.68-1.037 2.093-0.121 4.668-2.159 5.76-0.662-1.738-1.403-3.397-2.4-4.8-2.377 1.382-3.212 4.764-2.64 8.4-1.925 1.275-3.292-1.059-5.28-1.2-2.286 0.928-2.918 4.828-5.28 6-2.604 1.291-5.007 0.182-7.439-1.2-1.138 0.383-0.382 2.658-0.96 3.6-1.787-0.454-2.803-1.678-4.32-2.4-0.326-1.754-1.175-2.986-2.16-4.08-1.636 0.044-1.452 1.908-2.64 2.4-0.216-0.904-0.425-1.815-0.721-2.64-1.129 0.929-1.558 2.709-2.64 3.84-1.524 1.593-3.589 2.557-5.04 4.08-2.728 2.862-4.963 7.506-7.92 10.32-0.747 0.711-1.57 1.503-2.4 2.16-1.671 1.322-7.102 4.81-3.12 7.439 1.5-0.617 2.724-1.106 3.84-1.92 2.566-1.869 3.641-5.204 5.76-7.2 1-0.941 2.449-1.534 3.6-2.399 3.333-2.505 6.459-5.432 9.601-8.4 0.134-1.706-0.285-3.965 0.24-5.28 2.17 2.629 4.912 4.687 6.96 7.44 1.216-0.384 2.272-0.927 3.119-1.68 1.816 1.674 4.948 0.565 7.44 1.44 1.701-0.699 1.762-3.039 2.64-4.56 3.03-0.452 3.55 3.637 7.92 2.64 0.669-0.451 0.998-1.242 1.681-1.68 2.268 0.9 2.91-0.809 4.56-1.2-0.37 1.39-1.021 2.5-1.92 3.36-1.21 0.17-1.195-0.885-2.16-0.96-1.709 0.371-1.968 2.192-2.88 3.36-2.657-1.023-4.378-2.982-6.24-4.8-1.254 1.545-1.358 4.241-3.119 5.28-1.479-1.042-4.674 1.989-5.28-0.96-0.682 1.494-1.368-0.289-2.4-0.48-1.464 0.056-1.521 1.519-2.64 1.92-2.785-0.575-3.366-3.354-5.76-4.32 0.583 3.014 0.181 7.238 1.439 9.6 1.839 3.451 7.257 3.708 12 4.8-2.695 0.135-7.222 0.023-9.84-0.72-0.361 1.838 2.753 2.18 3.6 3.6 3.407 1.171 8.607 1.498 12.721 1.2-3.011 1.886-7.426 1.423-11.761 0.96-2.076-0.222-4.492-1.069-5.76 1.44-0.062 0.455 1.528 0.466 1.92 0.96 0.139 0.175-0.142 0.529-0.239 0.479 0.922 0.468 2.392 0.561 3.6 0.96 1.24 0.41 2.48 0.84 3.84 1.2zm-3.6-120.48c-1.009 0.045-2.076-0.294-3.12-0.24-3.011 0.156-5.944 1.724-8.641 1.2-1.721 1.392-5.47 0.048-6 2.16 1.916 0.664 3.654-0.487 5.521-0.72 0.614-0.077 1.32 0.265 1.92 0.24 1.891-0.08 3.806-0.923 5.04-1.2 3.924-0.879 7.65-0.284 10.56-1.92-1.54-0.906-3.44 0.398-5.28 0.48zm8.4 1.92c-0.758 0.118-0.089-1.191-0.96-0.96-0.843-0.042-0.789 0.811-1.439 0.96 0.006 1.477 1.047 3.215 0 4.32-0.86-1.06-0.459-3.382-1.2-4.56-0.691 0.029-1.571-0.131-1.92 0.24-0.128 1.21 1.104 4.303 0.24 6.24-0.712-1.928-0.648-4.632-1.921-6-3.385 0.035-0.556 5.167-1.439 6.96-0.704-1.776-1.019-3.941-1.44-6-1.001-0.571-2.713-0.073-3.359 0.48 0.001 2.241 0.771 4.985 0.479 6.72-0.975-1.826-0.672-4.928-1.92-6.48-0.632-0.231-2.056-0.464-2.64 0-0.848 2.085 0.852 4.879 0 6.96-0.359-2.041-0.922-3.878-1.2-6-0.626-0.573-1.882-0.976-2.88-0.48-0.74 1.58 0.404 5.044-0.72 6.24-1.146-1.96 0.279-6.188-2.16-6-2.004 0.155-0.955 3.326-0.721 5.28-1.406-0.753-1.014-3.307-1.68-4.8-0.858-0.102-1.28-0.639-2.399-0.48-0.243 2.883 0.562 4.717 1.199 6.72 3.054 0.065 7.434 1.377 10.08 1.44 1.861 0.044 3.877-1.189 5.521 0-2.629 2.11-9.048 0.429-12.96 0.72-0.79-0.136-1.61-1.094-2.4-0.48-0.528 0.558 0.048 1.363 0.24 1.92 2.238 0.629 5.261 0.891 8.16 0.96 0.785 0.019 2.146-0.433 2.64 0.48-1.362-0.332-2.698 0.396-4.08 0.48-2.504 0.152-4.918-0.889-6.72 0 2.502 1.978 7.577 1.383 11.52 1.92-2.93 1.169-8.242-0.237-10.8 0.72 0.401 2.479 4.673 1.087 6.24 2.4-1.62 0.361-4.325 0.042-6 0.24-0.127 1.247 0.316 1.923 0.479 2.88 1.862 0.563 4.67 1.377 4.32 3.36-1.523-0.156-2.177-1.184-3.6-1.44-0.53 0.526 0.237 0.98 0 1.92 0.734 0.094 1.267-0.5 1.439 0.96 0.638 0.539 1.223-0.359 1.681 0.24-0.063 2.054-2.16 0.552-2.641 0.72 0.644 6.476 2.654 11.586 3.601 17.76 2.47 2.33 7.879 3.975 12.72 3.36 1.222-0.155 2.148-1.229 3.36-0.48-1.407 0.673-3.372 0.788-4.561 1.68-2.837 0.276-5.958-0.439-8.16 0 2.834 2.45 8.594 1.54 12.48 2.4-2.694 1.099-4.985 2.198-8.4 1.44-1.081 0.678-1.624 1.896-3.12 2.16 2.346 3.172 8.561 3.388 12.96 3.12-1.898 0.421-3.287 0.76-4.319 0.96-3.439 0.666-6.483-2.357-10.08-1.44-1.471 2.84-2.343 7.896-0.96 11.52 2.272 1.884 4.938 2.845 7.2 4.8 1.487 1.286 2.498 3.446 4.8 3.6 1.875-1.164 3.046-3.034 4.8-4.32 0.974-2.675 1.946-5.306 4.08-6.96 0.383-0.297 1.039-0.358 1.439-0.72 1.776-1.604 2.675-4.626 5.521-5.04-1.488 0.966-1.937 2.547-2.88 3.84-1.864 2.553-5.036 4.132-6 7.44-0.202 0.598-0.314 1.286-0.24 2.16-2.444 2.269-4.409 6.667-9.12 4.56-1.711-1.809-3.856-3.184-5.52-5.04-2.854-0.587-4.085-2.795-6.721-3.6-0.357-1.136-1.724-1.745-2.88-3.12-1.284-1.529-2.22-3.611-3.359-4.8-0.705-0.735-2.637-2.104-3.841-1.92-3.635 0.558-0.954 5.238 0.24 6.48 1.316 1.369 3.463 2.263 5.04 3.84 2.372 2.371 4.169 5.043 6.24 7.44 2.236 2.587 6.06 5.682 9.84 6.24 1.349 0.749 3.173 3.139 5.28 3.36 4.313 0.452 4.82-3.884 6.96-6.24 2.037-2.243 7.8-4.201 8.88-6.96 1.051-2.685 3.001-5.816 3.36-8.88 0.359-3.068-1.135-3.932-2.4-5.28 0.842 0.198 1.444 0.636 2.4 0.72 0.291-2.482-0.724-4.282-1.2-6.48-2.335 0.148-4.741 1.011-6.72 2.16-2.004 0.144-4.801 1.828-6.24 0.96 3.257-1.542 7.664-1.936 9.84-4.56-1.104-0.767-1.212-2.249-2.88-2.64-1.839-0.432-4.76 1.085-6.24 0 4.32-0.56 6.741-3.02 7.68-6.96-1.822 0.017-1.659 2.021-3.12 2.4-1.475-0.317-2.781 1.298-4.56 0.48 4.895-2.368 9.636-4.735 8.64-11.28-0.739-4.862-2.418-11.364-3.359-16.56-0.32-1.767-0.46-2.792-0.721-4.08-0.171-0.849 0.251-2.125-0.72-2.64-1.82-0.057-4.402 2.474-6.72 1.92 0.681-0.359 1.579-0.5 2.4-0.72 0.772-1.947 3.973-1.467 4.319-3.84-3.697-0.167-7.046 3.345-10.8 3.12 0.861-0.259 1.636-0.604 2.64-0.72 1.57-1.379 4.018-2.077 5.761-3.12 0.589-0.353 1.926-0.485 1.439-1.68-2.975-0.122-6.076 3.412-9.359 2.88 1.707-0.749 3.648-1.221 5.279-2.16 1.424-0.819 3.421-2.062 3.601-4.08-2.745 0.536-4.681 3.159-7.2 3.12-0.442-0.915 0.847-1.515 1.439-1.92 1.315-0.9 3.116-1.149 3.841-2.88 0.123-0.294-0.346-0.819-0.24-1.44 0.073-0.432 0.64-0.519 0.72-0.96 0.137-0.75-0.464-2.777-1.2-2.4v1.2zm14.16 71.52c-1.15 1.018-3.327 5.903-0.479 6.48 0.314-1.686 1.57-2.43 2.399-3.6-0.972-1.188 0.098-4.417-1.439-5.04-0.26 0.623-0.58 1.177-0.48 2.16zm-9.12 12c0.242 0.559 0.826 0.774 1.681 0.72 0.233-0.887 0.861-1.378 0.72-2.64-1.43 0.012-2.15 0.732-2.4 1.92zm-23.76 2.64c0.592 0.032 1.156 0.037 1.44-0.24 0.073-1.113-0.421-1.659-1.44-1.68-0.53 0.526 0.24 0.98 0 1.92zm3.36 0.24c0.81 1.59 1.748 3.051 3.359 3.84 0.859-0.101 1.155-0.765 1.2-1.68-1.09-1.017-3.13-2.27-4.56-2.16zm28.56 80.88c0.133 2.107 0.305 4.176 0.72 6 2.863-0.373 2.404-4.114 1.92-6.72-1.24-0.12-2.01 0.23-2.64 0.72zm5.04 11.76c-1.001-1.473-1.257-3.608-2.88-4.561-1.135 0.466-2.451 0.749-2.88 1.92 2.081 2.639 3.558 5.883 5.76 8.4 1.13-0.711 2.335-1.345 2.88-2.64-0.82-1.18-2.03-1.88-2.88-3.12zm-30.48 2.16c0.572 0.547 1.467 0.772 2.399 0.96 0.722-0.879 0.52-2.681 0.72-4.08-0.708-0.571-1.839-0.721-3.119-0.721-0.58 1.01-0.08 2.72 0 3.84zm-1.44 1.2c-1.114 0.566-1.255 2.105-2.4 2.641-3.255 0.344-5.005 2.194-7.199 3.6-0.979 4.223 1.398 6.323 4.319 6.48 3.612 0.194 6.291-2.773 8.641-3.601 2.099-1.406 5.088-4.996 2.88-8.399-1.01 0.03-1.15 0.93-2.16 0.96-1.5-0.42-2.22-1.62-4.08-1.68zm31.92 14.88c0.835-0.538 1.654-1.955 2.4-2.88 0.79-0.98 1.244-2.04 1.92-2.88 0.954-1.186 2.181-1.735 2.399-2.64 0.282-1.164 0.007-3.254-0.239-3.84-0.388-0.92-1.616-1.41-2.641-1.92-1.676 0.324-1.683 2.317-2.88 3.12-2.775-1.222-5.195 1.762-5.52 4.56-1.763 1.381-5.458 5.399-2.16 7.44 1.8-0.11 4.93 0.19 6.72-0.96z"/>
	<path d="m94.08 23.76c-1.274 0.721-1.56 2.333-2.4 3.36-0.925 1.131-2.48 1.598-2.88 3.12-0.949-0.835 0.919-1.938 1.68-3.12 0.334-0.521 0.646-1.347 0.96-1.92 0.763-1.394 1.33-3.321-0.96-3.12-1.317 0.116-2.518 3.948-3.84 4.32-0.613-1.51 3.18-3.932 3.12-5.76-0.037-1.129-0.752-2.014-2.16-1.92-2.402 0.161-1.712 3.645-4.08 4.32 0.014-1.303 1.099-1.921 1.68-2.88 0.901-1.487 2.666-5.342-0.96-4.8-1.564 0.234-2.669 3.284-3.6 4.08 0.516 3.324 2.507 5.173 3.84 7.68 0.565-0.005 0.707 0.413 1.44 0.24-0.635 0.755 0.507 1.27 0.48 2.16-4.398-2.162-6.231-6.888-8.64-11.04-0.881-0.001-0.919 0.84-1.44 1.2 1.252 5.787 5.723 8.357 8.16 12.96-3.249-1.551-4.722-4.878-7.2-7.2-0.534-1.226-0.942-2.577-2.16-3.12-0.693 1.764 0.771 3.178 1.68 4.56 0.853 1.297 1.497 2.952 2.4 4.08 0.802 1.003 2.585 1.479 2.4 2.88-1.199-0.641-1.723-1.957-3.36-2.16-1.329-2.671-3.429-4.571-5.04-6.96-1.791 1.176-1.238 2.448 0 4.32 1.226 1.854 3.769 4.372 5.04 5.76 2.995 1.005 5.165 2.835 6.48 5.52-2.067-1.025-3.92-2.312-5.76-3.6-1.036-0.726-2.562-1.795-3.6-2.88-0.68-0.71-0.715-1.316-1.44-2.16-0.986-1.149-2.356-1.971-3.12-3.36-3.531 2.549-4.607 7.553-8.16 10.08-0.404 2.123-2.381 3.271-3.36 5.04-0.94 1.7-1.044 3.705-1.92 5.76 1.932 4.788 5.116 8.324 8.88 11.28-3.43-0.251-5.628-3.811-8.16-5.76-0.57-0.71-0.604-1.957-1.92-1.92-0.287 5.647 4.377 8.423 6.72 12.24-2.523-0.373-4.421-3.407-6.72-4.8-1.471 0.129-2.399 0.8-3.6 1.2 1.64 1.911 3.012 4.177 5.04 5.76 1.677 1.31 4.157 1.897 5.04 4.08-1.294 1.128-2.433-0.54-3.36-1.2-1.34-0.42-2.057-1.463-2.88-2.4-1.009 0.049-1.008-0.912-1.92-0.96-0.351-0.485-0.547-1.226-0.96-1.68-0.312-0.344-1.03-0.372-1.44-0.72-0.706-0.601-0.382-1.55-1.68-1.68-3.264-0.326-4.306 5.517-7.44 6.24 0.247 1.812-1.936 2.801-2.88 4.32-0.91 1.464-0.797 3.746-2.64 4.32 0.387 1.907-1.348 1.739-1.2 3.84 2.711-0.025 5.522-1.985 9.12-1.92 0.407 0.874 0.63 1.93 0.72 3.12 0.597 0.3 1.728-0.573 3.12-0.24 1.058 2.222 1.567 4.993 1.92 7.92 3.089-0.511 4.574-2.626 7.44-3.36 1.93 1.313 2.678 4.67 2.16 7.68-1.837-1.595-1.729-4.926-4.08-5.28-2.126-0.32-3.271 2.383-6.24 1.92-0.861-2.099-1.547-4.373-2.16-6.72-1.202-0.082-1.326 0.915-2.64 0.72-0.806-0.874-1.235-2.125-1.68-3.36-1.876-0.848-4.159-0.044-5.52 0.96-1.794-0.254-3.187 1.057-4.8 1.68-1.189-3.644 2.345-4.495 1.68-8.4 4.09-4.55 6.898-10.382 11.52-14.4h1.92c1.487-1.153 2.842-2.438 5.04-2.88-0.987-1.82-1.064-2.701-0.48-5.52 0.451-2.172 0.875-3.475 1.68-5.28 1.526-3.421 3.173-6.184 5.52-9.36 1.032-1.397 1.959-2.916 3.12-4.56 1.496-2.119 3.509-4.691 5.04-7.2 1.049-1.719 1.966-3.593 3.12-4.8 0.634-0.663 1.616-1.01 2.16-1.68 0.491-0.604 0.489-1.502 0.96-2.16 0.605-0.844 1.726-1.148 2.4-1.92 0.438-0.502 0.747-1.349 1.2-1.92 1.218-1.532 2.742-3.296 4.32-4.56 1.751 0.278 3.247 0.661 4.56 1.2 0.12 0.049 0.726 0.113 0.96 0.24 1.485 0.803 2.266 2.559 3.6 3.6 0.753 0.588 1.878 0.78 2.64 1.44 0.547 0.474 0.814 1.348 1.44 1.92 0.734 0.67 2.043 0.936 2.88 1.68 0.507 0.45 0.688 1.267 1.2 1.68 1.073 0.865 2.589 1.408 3.6 2.4 0.389 0.381 0.549 0.983 0.96 1.44 0.415 0.46 1.093 0.559 1.44 0.96 1.381 1.592 3.067 3.976 3.36 5.04 0.604 2.195-2.69 3.875-4.08 6-0.743 1.136-0.699 2.335-1.2 3.12-0.56 0.877-1.45 1.616-2.4 2.16-0.252 1.347-0.917 2.282-1.2 3.6-2.298 0.807-2.561 3.298-3.839 5.52-0.7 1.215-2.197 2.44-3.36 3.84-2.208 2.657-3.982 5.247-6.24 7.92-1.14 1.35-2.386 2.983-3.36 3.84-1.727 1.519-4.13 1.714-6 3.12-0.191 2.031 0.39 3.291 0.96 4.56 2.711 0.355 5.886-3.185 9.12-3.36 2.937-0.159 6.7 1.662 5.76 5.28-0.915 1.528-2.177 2.08-4.32 2.88-2.546 0.951-5.788 1.728-8.4 2.88-2.303 1.017-4.6 1.596-6.24 3.36 1.134 4.036 2.627 10.001 0.96 14.64 2.746-0.229 5.163-2.825 7.92-3.84 1.463-2.216 3.273-4.087 5.76-5.28 4.827-0.623 6.355 3.106 4.32 6.48-0.13 0.215-0.553 0.246-0.72 0.48-0.263 0.368-0.792 1.322-1.2 1.68-1.108 0.972-2.778 1.382-3.84 2.4-1.527 1.463-2.083 3.168-3.12 4.32-1.237 0.879-2.836 2.305-4.56 3.84-1.607 1.431-3.166 3.766-4.8 4.08-2.55 0.491-4.232-1.398-6.24-2.64-1.387-2.007-1.557-4.552-2.4-7.44-1.547-5.298-5.642-7.541-4.8-14.4 0.131-1.07 1.028-2.416 1.44-4.08 0.773-3.12 0.336-7.031 3.12-8.16 4.248-0.248 5.955 2.044 6.96 5.04 1.466-0.125 1.438-1.894 1.92-2.88 0.477-0.975 1.727-1.96 1.2-3.6-3.536-0.464-6.666-1.333-8.4-3.6 2.602 0.435 4.599 1.712 7.44 0.72 0.005-1.365-0.407-2.313-0.72-3.36-1.634-0.446-3.002-1.158-4.32-1.92 1.078-0.74 3.525 0.721 6 0.24 1.565-0.304 2.382-1.519 3.36-1.92-2.75-1.25-6.225-1.775-8.64-3.36 2.508-0.149 4.87 1.238 8.4 1.44 3.097 0.178 4.375-0.349 6-2.4 0.637-0.805 0.982-1.925 1.68-2.88 1.692-2.316 4.338-5.227 6-7.44-0.98-1.26-2.168-2.312-3.36-3.36 1.076 0.248 3.845-0.213 5.76 0.24 0.45-0.27 0.51-0.93 0.96-1.2-0.127-1.742-2.021-1.569-3.12-2.16-1.582-0.85-2.942-2.264-4.56-2.88 1.349-0.208 3.036 0.907 4.8 1.44 1.682 0.508 3.867 1.507 5.04 0.24-0.858-1.542-3.086-1.714-4.8-2.4-0.506-1.254-2.472-1.049-2.88-2.4 2.753 0.767 5.412 1.628 8.16 2.4 0.297-1.238-2.262-1.535-3.12-2.4-1.229-0.771-3.008-0.992-3.6-2.4 1.731 0.632 3.781 1.643 6 2.4 1.047 0.357 2.464 1.306 3.36 0.24-0.354-1.171-1.816-1.245-2.64-1.68-2.568-1.356-5.212-3.482-7.68-5.28-0.204 0.044-0.227-0.094-0.24-0.24 0.937-2.547 6.473-6.852 2.64-9.12zm1.44 11.04c0.904-2.616 3.376-3.664 3.36-7.2-0.709-0.25-0.705-1.215-1.92-0.96-1.588 2.251-3.858 3.822-5.04 6.48 1.626 0.134 2.019 1.501 3.6 1.68zm10.08-6.72c-1.752-2.094-3.018-4.4-5.76-5.28-0.868-2.011-2.933-2.827-4.8-3.84-0.533-1.787-2.276-2.363-4.08-2.88-0.963-2.015-2.898-4.278-5.76-3.6v0.72c1.994 1.125 2.387 3.853 5.04 4.32 0.517 0.763 1.295 1.264 1.44 2.4 1.879 0.317 2.857 1.978 3.84 2.88 1.488 1.367 3.739 1.555 4.08 3.6 3.101 0.82 4.547 3.293 7.681 4.08-0.09-1.061-1.07-1.668-1.68-2.4zm-26.4-11.28c0.14 0.9 0.483 1.597 1.2 1.92 0.813-2.147 2.887-3.033 3.12-5.76-0.655 0.175-0.483-0.477-0.96-0.48-0.734 1.826-2.266 2.854-3.36 4.32zm16.8 18.48c2.389 2.439 5.736-2.809 6.24-5.04-0.791-0.489-0.739-1.821-1.92-1.92-1.174 2.587-3.067 4.453-4.32 6.96zm6.96-4.08c-1.145 1.975-2.521 3.719-4.08 5.28 0.91 0.45 1.882 0.838 3.12 0.96 0.621-2.339 2.433-3.487 3.12-5.76-0.6-0.284-1.41-0.347-2.16-0.48zm2.64 0.96c-0.479 2.321-2.294 3.305-2.88 5.52 1.454 0.92 1.884-1.118 2.4-1.92 0.645-1 1.808-2.071 1.68-3.36-0.28-0.201-0.64-0.317-1.2-0.24zm-12.72 18.72h0.96v-0.96c-0.751-0.111-1.071 0.208-0.96 0.96zm-7.2 28.08c1.474-0.451 3.139-0.247 4.32-0.96 1.636-0.988 2.423-3.301 0.24-4.08-3.078-1.099-5.081 1.391-8.16 2.4-0.854 0.28-1.925 0.205-2.4 0.48-1.396 0.81-1.88 3.086-2.16 5.04 2.44-0.461 5.251-1.99 8.16-2.88zm-11.76 21.36c-0.073-2.079 0.757-4.523 0.48-6.48-0.63-4.458-1.951-10.962-3.84-12.96-0.277-0.292-1.645-1.334-2.64-1.2-0.901 0.122-3.046 3.194-3.12 3.84-0.254 2.218-1.094 5.465-1.2 6.96-0.322 4.571 2.041 6.844 3.36 9.36 1.462 2.79 1.425 6.107 2.16 8.88 1.453 2.057 2.845 4.704 5.52 4.32 1.261-0.181 2.275-1.976 3.6-3.12 1.268-1.096 2.896-1.969 3.84-3.12 1.624-1.979 2.812-4.111 4.08-5.28 2.674-1.77 6.689-3.33 6.24-7.44-3.004-2.143-4.212 0.563-6.24 2.64-1.094 1.12-2.448 2.229-3.6 2.88-1.868 1.055-4.944 2.187-5.52 3.6-0.545 1.336 0.56 2.873-0.48 3.6-1.239-1.62-2.557-4.1-2.64-6.48z"/>
	<path d="m124.8 39.84c-0.931 2.765-3.725 2.797-5.04 0.48-1.059 0.701-1.295 2.225-2.16 3.12-0.522-1.567 0.874-3.283 1.44-4.56 2.255 1.098 4.119-0.119 5.76-0.96 1.617 1.903 3.066 3.974 4.08 6.48-1.54-1.34-2.18-3.579-4.08-4.56zm-2.64 1.2c0.082-0.882-0.875-0.726-1.44-0.96-0.16 0.96 0.64 0.965 1.44 0.96z"/>
	<path d="m35.04 113.76c1.034 0.043 1.474-1.411 2.4-0.72 2.047 1.312 1.752 4.968 3.84 6.24 2.623-0.737 4.137-2.584 7.2-2.88 1.896 1.063 0.739 5.181 3.12 5.76 1.692 0.092 2.396-0.804 4.32-0.48 0.493 0.468 1.171 0.749 1.2 1.681 1.316-0.043 2.023 0.307 3.36 0.72-0.516 1.965-1.714 3.245-2.88 4.56-0.048 3.232-2.284 4.276-3.84 6 1.258 2.527 2.617 5.06 2.88 8.4 0.419 5.314 0.856 10.476 0.72 15.6-0.044 1.673-0.59 3.342-0.48 4.801 0.185 2.451 1.369 4.642 0.24 6.96-0.075 0.947 0.592 1.228 0.72 2.159 0.153 1.116-0.431 2.074-0.48 3.36-0.028 0.748 0.416 1.189 0.48 1.92 0.115 1.302-0.092 5.324-0.48 6.72-0.55 1.982-2.325 3.325-3.84 4.08 0.061 2.941-3.114 2.646-3.84 4.801 0.358 1.48 0.586 3.093 1.68 3.84 2.111-0.529 2.905-2.375 6-1.92-0.186 0.213-0.258 0.542-0.24 0.96 0.007 1.184-1.111-0.248-1.44 0.479-1.051 1.234-3.219 1.063-4.56 1.44-0.568 0.552-0.415 1.824-0.96 2.399-1.803-0.405-2.707-0.229-4.56-0.479-1.519 1.041-2.433 2.687-2.88 4.8 1.055 1.13 1.113 2.73 2.64 3.36 2.503 1.032 6.865-0.173 8.64-1.681 0.466-0.396 0.577-1.225 1.2-1.92 2.062-2.3 4.954-2.999 4.32-6.96-0.269-0.611-0.661-1.1-0.72-1.92 3.293 0.86 3.106 5.205 1.44 7.44-0.308 0.412-1.188 0.576-1.92 1.2-1.113 0.947-2.282 2.881-3.84 4.079-0.666 0.513-1.448 0.929-2.16 1.44-2.176 1.563-7.381 1.338-9.12-0.48-0.473-0.493-0.48-1.657-1.44-1.92-1.554-3.465 0.138-6.534 2.16-8.399 0.109-2.109-0.307-3.693-1.92-4.08-1.089 0.122-1.195 1.132-2.16 1.439-1.944 0.621-3.662-0.65-5.76-0.96 0.054-0.346-0.39-0.504-0.48-0.239-1.167-0.432-0.987-1.139-2.64-0.721-1.14-0.249-2.053-1.504-3.12-0.479 0.044 1.396 1.795 1.085 2.16 2.16 4.942-0.694 7.289 2.351 6 6.479-1.855 1.185-3.133 2.946-6 3.12-0.771-0.211-0.329 0.791-0.96 0.72-0.816-0.313-1.675 0.535-1.92 0-0.658 0.218 0.468 0.884-0.48 0.96-0.806 0.427-1.652-0.258-2.16 0.721-1.877-0.683-4.245-0.876-5.04-2.641-0.139-0.291-0.906 0.156-1.44-0.239-1.125-1.595-1.983-3.457-1.68-6.48 0.975-1.665 2.478-2.802 4.08-3.84 0.437-2.648 1.94-6.807-0.24-8.64-0.332-1.812-0.036-3.623-0.24-5.521-0.389-3.606-1.676-6.602-1.68-11.28-0.003-4.196-0.005-8.392-0.48-12.72-0.331-3.014-0.655-7.037-0.48-10.8 0.177-3.796-0.875-7.136-0.24-10.8 0.822-4.744 5.174-5.79 8.16-8.641 0.009-4.869-3.849-7.711-1.2-12 1.501-0.301 1.631 0.77 2.64 0.96 2.909-0.931 4.843-2.837 6.96-4.56 1.276 0.08 0.969 1.75 1.44 2.64zm20.4 51.12c-0.696-9.203-0.093-18.197-2.16-25.68-2.691 0.844-6.95 1.85-10.08 1.2-0.285-0.06-1.014-0.095-0.96-0.721 4.47 0.311 8.105-0.214 10.08-2.399-0.901-3.898-7.708-1.893-10.32-4.08 2.298-0.152 5.699 0.493 8.88 0.24 1.134-1.347 4.062-0.898 4.08-3.36-4.37-0.511-9.374-0.387-12.48-2.16 5.803 0.357 15.227 2.109 16.32-3.6-1.906-0.087-2.187-1.645-3.6-1.681-1.662-0.042-2.36 2.251-4.8 1.681-1.325-1.795-1.364-4.876-2.4-6.96-2.519 0.222-3.264 2.383-4.8 3.359-3.924 2.494-4.397-4.374-5.76-7.2-2.124-0.044-1.49 2.671-2.64 3.601-1.392-0.688-0.939-3.221-1.92-4.32-1.849 1.512-4.102 2.618-6.24 3.84-0.402-0.318-0.512-0.928-1.44-0.72-0.182 3.264 2.2 4.495 3.84 6 2.065 1.896 3.22 2.627 5.76 3.84 1.03 0.492 2.273 0.956 3.12 1.681-3.285-0.635-6.75-1.091-8.4-3.36-1.144 0.647-1.702-0.761-2.64 0.24 0.448 2.103 2.55 3.208 4.08 4.08 1.774 1.011 3.566 2.046 5.52 2.88 1.346 0.574 3.334 0.463 4.08 1.92-4.45-1.471-9.19-2.65-12.48-5.28-0.888 0.442-0.864 0.306-2.16 0.24-0.939 0.98-2.232 1.607-3.36 2.399 2.176 4.624 6.955 6.646 11.28 9.12-1.838-0.704-3.638-0.685-5.28-1.2-3.348-1.051-5.586-3.852-9.12-4.56-1.005 10.557 0.063 21.014 0.72 32.16 1.365 2.155 4.387 2.653 6 4.56-2.656 0.152-3.667-2.541-5.76-2.159-0.617 0.714 0.166 1.335-0.24 2.159-0.355-0.277-0.605-0.277-0.96 0 0.642 0.695 1.703 2.017 2.4 2.4 1.045 0.576 2.445 1.489 3.36 1.92 0.413 0.194 1.132 0.035 1.68 0.24 0.713 0.267 1.299 1.021 1.92 1.2 2.006 0.577 4.538-0.18 5.52 1.199-5.248-0.272-9.05-1.99-12.72-3.84-0.734-0.174-0.706 0.414-1.44 0.24 0.091-0.916 0.338-0.929-0.48-1.2-0.041 0.359 0.086 0.886-0.24 0.96 3.312 4.208 9.219 5.821 15.84 6.721-1.234 0.622-5.161 0.565-6-0.721-0.776-0.296-0.184 0.776-0.96 0.48-1.212-0.91-2.93-0.766-4.32-1.44-1.217-0.59-2.302-2.669-3.84-1.2 0.134 1.066 0.33 2.07 1.44 2.16 0.528 2.342-0.327 5.379 0.48 6.96 0.399 0.782 1.19 2.183 1.92 2.16 0.529-1.151 0.078-3.282 0.72-4.32 0.605 2.676-0.442 7.003 3.36 6.48 0.125-2.543-1.022-5.3 0-7.68 1.014 2.97 0.903 6.393 1.68 9.12 0.454 0.426 1.585 0.175 2.4 0.239 0.499-2.663-0.163-5.575 0.48-7.68 0.677 1.553 0.227 3.74 0.48 5.52 0.214 1.505 0.441 3.367 1.68 3.841-0.12-1.001 0.608-1.152 1.44-1.2 0.053-2.635-0.165-6.395 0-8.88 1.045 2.794 0.562 7.117 1.92 9.6 0.879 0.079 1.333-0.267 1.92-0.479 0.001-2.134 0.033-4.208 0.24-5.521 1.017 1.977 0.05 4.682 1.2 6.24 0.204 0.566 0.591-0.661 1.44-0.24 0.022 0.377-0.032 0.832 0.48 0.72-0.19-1.15 0.803-1.116 0.96-1.92 0.305-2.068-0.505-4.29 0-5.76 0.762 1.558 0.362 4.278 1.2 5.76 1.368 0.398 2.816-0.742 3.6-1.68-0.235-2.088-1.105-4.812-0.72-6.72 0.886 1.753 1.159 4.121 1.92 6 1.937-0.224 1.878-2.442 2.88-3.601-0.213-1.896-0.812-3.677 0-4.8 0.537 1.143 0.373 2.987 0.72 4.32 1.718-0.043 1.641-1.88 2.64-2.641-0.07-0.89-0.451-1.469-0.96-1.92 1.057-0.859 0.394-3.702 0-5.04-1.299 0.6-3.098 1.326-4.32 1.92-0.791 0.385-1.776 1.788-2.64 0.48 1.19-0.952 3.006-1.505 4.56-2.4 1.347-0.776 3.523-1.863 2.88-3.84-1.83 0.173-3.384 1.893-4.8 1.681 1.601-1.52 4.529-1.711 4.8-4.561-1.931-0.766-2.199 1.44-3.6 1.92-2.354-0.032-3.802 2.114-6 1.44 3.61-1.031 6.265-3.016 9.36-4.561 0.074-0.729 0.894-1.436 0.24-2.16-2.517 0.604-4.428 3.091-6.96 2.881 2.164-1.52 4.973-2.39 6.48-4.56zm-33.36 30.96c1.465 0.135 2.387 0.813 3.6 1.2 0.224-1.536 0.626-2.894 0.72-4.56-1.628-0.292-1.984-1.856-3.36-2.4-0.601 1.64-0.835 3.64-0.96 5.76zm23.52 3.12c1.483-0.103 2.823 0.602 3.84 0.24 0.383-1.673-0.84-3.144-1.2-4.8-1.047 0.052-2.274 0.604-2.88-0.24-1.251 1.31-0.244 3.26 0.24 4.8zm-23.76-2.16c-3.885-0.676-4.266 3.442-3.36 6.24-0.224-0.146 0.963 1.683 1.44 1.68 4.202 4.129 19.219-2.307 12.72-7.439-2.15-0.145-3.575 0.438-5.04-0.24-0.832 0.448-0.764 1.796-1.44 2.4-1.464-0.52-3.007-2.41-4.32-2.64z"/>
	<path d="m61.2 120c1.298 0.803 1.259 2.213 1.92 3.36 0.383 0.666 0.897 0.963 1.44 1.68 0.411 0.543 0.584 1.445 0.96 1.92 0.896 1.132 2.211 1.957 3.12 3.12 0.473 0.605 0.744 1.248 1.2 1.92 1.868 2.753 4.601 5.763 5.52 9.84-2.118-2.4-3.104-6.322-5.28-9.12-1.193-1.534-2.517-3.435-3.84-4.56-0.77-0.654-1.745-0.976-2.64-1.681-1.373-1.08-2.375-3.9-2.4-6.48z"/>
	<path d="m115.44 149.76c0.053 0.773-0.425 1.016-0.24 1.92-3.515-0.72-8.799 0.82-12.72-1.439-1.844 1.346-4.79 0.239-7.201 0.239-0.455 0-0.978-0.261-1.2-0.239-0.437 0.041-0.751 0.486-1.2 0.479-1.937-0.027-3.927-0.726-5.76-0.72-1.928 0.007-3.698 1.122-5.28 0-0.95-0.31-0.49 0.79-1.44 0.479-4.976-0.741-9.469 0.765-13.92-0.959 3.882-1.794 8.563-0.24 13.2-0.24 3.212 0 6.556-0.473 9.84-0.48 1.915-0.004 3.905 0.394 5.76 0.48 7.241 0.34 14.261-0.56 20.161 0.48z"/>
</g>
<metadata><rdf:RDF><cc:Work><dc:format>image/svg+xml</dc:format><dc:type rdf:resource="http://purl.org/dc/dcmitype/StillImage"/><cc:license rdf:resource="http://creativecommons.org/licenses/publicdomain/"/><dc:publisher><cc:Agent rdf:about="http://openclipart.org/"><dc:title>Openclipart</dc:title></cc:Agent></dc:publisher></cc:Work><cc:License rdf:about="http://creativecommons.org/licenses/publicdomain/"><cc:permits rdf:resource="http://creativecommons.org/ns#Reproduction"/><cc:permits rdf:resource="http://creativecommons.org/ns#Distribution"/><cc:permits rdf:resource="http://creativecommons.org/ns#DerivativeWorks"/></cc:License></rdf:RDF></metadata></svg>
