<?xml version="1.0"?>
<svg xmlns:rdf="http://www.w3.org/1999/02/22-rdf-syntax-ns#" xmlns="http://www.w3.org/2000/svg" xmlns:cc="http://web.resource.org/cc/" xmlns:dc="http://purl.org/dc/elements/1.1/" xmlns:sodipodi="http://inkscape.sourceforge.net/DTD/sodipodi-0.dtd" id="svg5198" sodipodi:version="0.32" height="410pt" width="210pt" version="1.0" sodipodi:docname="smash_capitalism.svg" sodipodi:docbase="C:\foo\wikipedia\transfer">
 <sodipodi:namedview id="base" bordercolor="#666666" borderopacity="1.0" pagecolor="#ffffff"/>
 <path id="path5207" d="m110.36 502.69c-1.26-0.31-2.8-0.68-3.44-0.81-1.12-0.23-3.28-3.1-3.97-5.26-0.21-0.67 0.13-1.69 0.89-2.66 1.08-1.37 1.25-2.38 1.34-7.97 0.1-6.62 0.6-8.26 3.94-13.03 0.53-0.75 0.96-1.83 0.96-2.41 0-0.57 0.55-2.11 1.22-3.43 1.05-2.07 1.17-2.97 0.84-6.71-0.81-9.41-1.05-12.42-1.13-14.16-0.1-2.07-1.65-4.06-3.37-4.31-2.81-0.43-4.89-6.56-3.14-9.24 0.49-0.74 1.02-3.13 1.19-5.31s0.33-4.23 0.35-4.54c0.2-2.52-0.4-15.06-0.75-15.62-0.78-1.27-1.81-0.79-5.22 2.43-1.831 1.74-3.438 3.15-3.569 3.15-0.13 0-1.016-0.4-1.969-0.89-2.073-1.07-3.369-0.35-3.369 1.88 0 1.82-3.175 4.87-4.82 4.63-0.888-0.13-1.245-0.65-1.378-2.03-0.099-1.03 0.055-1.87 0.343-1.87 0.287 0 0.995-1.05 1.574-2.33s1.76-2.7 2.63-3.15c0.868-0.45 1.733-1.06 1.923-1.37 0.469-0.76-4.153-4.04-5.692-4.04-1.94 0-10.056 5.53-10.056 6.85 0 0.61-1.418 2.65-3.152 4.52s-3.153 3.61-3.153 3.87c0 0.76 3.02 3.68 3.804 3.68 0.398 0 1.395 0.88 2.215 1.95 1.648 2.16 2.714 2.77 4.012 2.27 1.339-0.52 1.014-2.56-0.688-4.34-1.433-1.5-1.478-1.69-0.611-2.55 0.813-0.82 1.187-0.84 2.837-0.19 2.471 0.98 4.48 2.8 4.48 4.06 0 0.55-0.678 1.81-1.507 2.79-1.401 1.67-1.487 2.09-1.233 6.06 0.255 3.97 0.184 4.32-1.052 5.13-0.729 0.48-1.464 0.87-1.633 0.87s-0.307-1.55-0.307-3.44c0-2.56-0.258-3.67-1.003-4.33-2.43-2.15-6.754-5.42-7.178-5.42-0.256 0-1.755-1.2-3.332-2.68-2.778-2.6-2.979-2.68-6.535-2.72-3.364-0.04-3.825 0.11-5.563 1.77-1.844 1.77-4.966 2.78-5.023 1.63-0.129-2.62 7.084-6.83 11.836-6.9 2.347-0.04 3.342-0.35 4.464-1.4 0.794-0.75 1.444-1.7 1.444-2.12 0-1.12 6.672-7.51 10.174-9.76 1.655-1.06 3.009-2.29 3.009-2.73 0-3.53-15.909-19.35-22.138-22.02-0.907-0.39-2.164-1.52-2.795-2.51-0.63-1-2.278-2.57-3.661-3.5-3.721-2.5-22.307-20.89-23.959-23.71-1.218-2.08-3.016-7.38-3.038-8.95-0.003-0.28 1.186 1.14 2.643 3.15 4.794 6.6 5.756 7.37 9.167 7.37 1.792 0 3.706-0.4 4.77-1 1.565-0.89 1.846-0.9 2.359-0.15 0.32 0.48 0.444 1.81 0.276 2.97-0.312 2.15 0.675 3.91 2.186 3.91 0.38 0 2.064 1.03 3.742 2.29s3.546 2.3 4.151 2.3c1.211 0 4.846 2.14 7.943 4.67 1.096 0.9 2.261 1.63 2.588 1.63s1.493 0.48 2.592 1.07c1.098 0.58 2.642 1.26 3.43 1.5s1.82 0.77 2.293 1.18 1.891 1.13 3.152 1.6c11.107 4.14 17.715 6.79 18.771 7.53 0.692 0.48 1.605 0.88 2.028 0.88 0.422 0 2.178 0.64 3.898 1.43 1.73 0.79 3.27 1.43 3.43 1.43s1.69 1.03 3.4 2.3c1.7 1.26 3.33 2.29 3.61 2.29 0.29 0 1.24-0.67 2.13-1.49 0.88-0.82 2.66-2 3.95-2.63 1.29-0.62 2.73-1.37 3.2-1.67 2.41-1.51 4.77-2.28 5.31-1.74 0.81 0.81 0.06 2.42-1.3 2.78-0.63 0.16-1.14 0.75-1.14 1.31 0 0.95 1.27 1.68 4.48 2.59 0.94 0.27 1.27 0.73 1.14 1.61-0.15 1.04-0.61 1.27-2.78 1.41-2.11 0.14-3.08 0.61-5.08 2.43-2.54 2.32-5.25 3.41-8.48 3.42-1.63 0-1.97 0.3-3.08 2.73-1.17 2.54-1.25 3.56-1.23 15.82 0.01 8.69 0.23 13.31 0.65 13.73 1.08 1.08 0.69 3.09-0.8 4.06-1.59 1.04-2.31 3.09-1.74 4.89 0.31 0.97 0.85 1.19 2.94 1.19 1.4 0 3.14 0.38 3.85 0.85 1.93 1.26 11.55 1.31 12.93 0.07 0.56-0.51 1.78-0.92 2.71-0.92s2.66-0.49 3.83-1.09l2.12-1.08v1.91c0 2.99 0.92 4.77 2.71 5.19 0.87 0.21 1.91 0.64 2.31 0.95 0.95 0.75 0.88 2.74-0.16 4.11-0.47 0.62-0.84 2.07-0.84 3.23 0 1.61-0.27 2.19-1.1 2.41-1.2 0.31-2.34-0.52-2.34-1.7 0-0.95-0.98-0.98-1.29-0.04-0.13 0.39 0.05 1.75 0.4 3.01 0.53 1.94 0.61 3.81 0.35 8.73-0.05 0.88-3.32 4.27-4.88 5.05-2.51 1.25-1.37 3.83 2.79 6.29 0.54 0.31 1.04 1.06 1.13 1.66 0.26 1.84 2.43 3.17 4.58 2.82 2.54-0.41 3.19 1.09 1.48 3.41-1.66 2.24-1.12 3.28 1.69 3.28 1.25 0 2.41-0.22 2.58-0.49 0.48-0.78 6.71-1.23 7.95-0.57 0.77 0.42 1.29 0.41 1.73-0.03 1.25-1.24 2.48-0.6 3.72 1.95 0.69 1.42 1.45 2.58 1.69 2.57 0.78-0.01 1.68-0.82 2.38-2.14 0.53-1.01 1.17-1.29 2.99-1.29 3.2 0 4.71 0.87 3.96 2.28-0.91 1.7-0.72 2.99 0.42 2.77 0.72-0.14 1.01-0.76 1.03-2.19 0.04-2.66 1.45-2.84 6.01-0.8 5.48 2.46 9.48 7.8 7.97 10.62-0.3 0.56-1.64 1.12-3.24 1.37-4.09 0.64-13.49 0.77-14.61 0.2-0.57-0.3-3.29-0.22-6.59 0.19-5.81 0.72-6.19 0.73-14.79 0.22-14.05-0.82-16.33-1.31-16.33-3.56 0-0.98-2.64-2.71-3.42-2.23-0.32 0.21-0.59 1.28-0.59 2.38 0 2.84-0.88 4.13-3.02 4.47-4.18 0.65-10.6 0.76-12.75 0.22zm-65.518-2.68c-0.414-0.26-1.352-0.36-2.085-0.22-0.732 0.14-1.891-0.04-2.576-0.41-0.684-0.37-3.568-0.91-6.408-1.2-4.31-0.45-5.582-0.82-7.695-2.28-2.729-1.87-3.695-3.22-3.695-5.13 0-0.66-0.371-1.92-0.823-2.8-0.741-1.43-0.713-1.75 0.283-3.27 1.994-3.02 0.918-7.12-1.871-7.12-0.489 0-1.221-0.4-1.627-0.89-1.197-1.44-2.386-8.09-2.671-14.94l-0.265-6.38 5.521-5.44c3.037-2.98 6.089-5.7 6.782-6.02 3.987-1.89 7.468-3.03 8.361-2.74 1.246 0.39 2.754-1.17 3.022-3.13 0.12-0.87 0.635-1.51 1.331-1.64 0.624-0.12 2.301-1.25 3.726-2.51 1.424-1.26 3.174-2.51 3.887-2.79 0.713-0.27 1.578-1.11 1.922-1.87 1.019-2.23 6.715-3.55 10.759-2.47 3.735 0.99 6.849 4.09 9.765 9.74 2.136 4.13 2.418 5.04 1.792 5.8-0.775 0.93-2.165 1.14-3.708 0.54-0.629-0.24-0.906-1.09-0.906-2.77 0-1.63-0.347-2.75-1.048-3.38-1.364-1.23-1.921-1.2-3.762 0.25-0.839 0.66-2.228 1.39-3.087 1.62-1.228 0.34-1.56 0.77-1.56 2.03 0 2.08-1.559 3.16-3.143 2.17-1.719-1.08-3.106-0.87-4.565 0.69-1.124 1.19-1.26 1.77-0.933 3.95 0.304 2.03 0.141 2.95-0.788 4.48-1.392 2.28-1.5 4.09-0.305 5.08 0.712 0.59 1.072 0.54 1.974-0.28 0.607-0.55 1.183-1.55 1.279-2.23 0.105-0.73 0.982-1.63 2.182-2.23 1.103-0.55 2.677-1.63 3.498-2.4s2.985-2.09 4.808-2.92c2.726-1.25 3.782-1.45 5.935-1.13 1.44 0.22 2.91 0.79 3.267 1.28 0.485 0.66 1.178 0.79 2.728 0.5 1.591-0.3 2.514-1 3.937-2.98 1.022-1.42 3.291-3.46 5.041-4.52 2.281-1.39 3.821-2.92 5.436-5.41 1.238-1.92 2.402-3.48 2.585-3.48s1.643-0.87 3.243-1.92c1.72-1.13 4-2.07 5.576-2.28 2.619-0.36 2.669-0.34 2.669 1.22 0 2-2.43 3.55-5.574 3.55-2.732 0-4.43 1.59-7.032 6.59-1.882 3.62-3.636 5.41-5.306 5.43-0.549 0.01-2.506 1.5-4.349 3.31-4.661 4.59-5.834 5.14-8.864 4.21-1.325-0.41-3.47-0.87-4.767-1.02-2.284-0.27-2.522-0.13-7.517 4.39-6.374 5.77-7.082 6.92-5.725 9.28 0.541 0.95 0.984 2.09 0.984 2.55s0.402 0.99 0.894 1.17c1.165 0.45 4.262-2.5 4.273-4.06 0.016-2.09 1.691-3.41 6.583-5.2 1.576-0.58 3.549-1.67 4.384-2.44 1.262-1.15 1.719-1.28 2.715-0.75 1.369 0.74 2.119 2.99 1.407 4.23-0.883 1.54-7.157 6.27-7.637 5.77-0.259-0.28-0.564-1.02-0.677-1.64-0.376-2.09-1.942-1.66-2.522 0.69-0.44 1.78-0.819 2.2-2.112 2.35-0.867 0.1-1.576 0.38-1.576 0.62 0 0.76 1.899 2.19 4.117 3.11 2.373 0.98 5.934 5.41 6.532 8.12 0.681 3.1 1.832 4.63 4.51 6.01 3.161 1.62 3.817 3.33 2.338 6.07-1.016 1.89-2.467 2.73-5.851 3.4-1.003 0.2-2.114 0.71-2.469 1.14-0.355 0.42-1.648 0.94-2.873 1.15-1.224 0.21-2.531 0.74-2.903 1.19-0.997 1.2-2.828 1.03-2.828-0.27 0-0.77 0.549-1.18 1.948-1.44 1.072-0.2 2.277-0.76 2.677-1.25 0.401-0.48 1.91-1.56 3.353-2.39 1.444-0.83 2.832-1.85 3.084-2.26s0.961-0.74 1.576-0.74c0.647 0 1.118-0.39 1.118-0.93 0-0.69-0.383-0.85-1.522-0.64-2.26 0.44-3.943-1.54-4.366-5.11-0.501-4.23-3.036-7.93-6.681-9.75-1.611-0.8-3.289-1.32-3.729-1.15-0.439 0.17-1.119 1.74-1.51 3.49-1.27 5.67-4.546 6.5-4.546 1.15 0-2.59-0.648-3.59-1.547-2.39-0.762 1.02-0.525 7.36 0.354 9.48 0.658 1.59 0.594 2.16-0.543 4.9-1.015 2.45-1.773 3.37-3.581 4.33-2.105 1.13-2.404 1.16-3.636 0.35-2.168-1.42-3.641-5.29-4.585-12.04-0.484-3.47-1.247-7.28-1.695-8.47-0.449-1.19-0.815-3.08-0.815-4.21s-0.439-2.79-0.975-3.7c-0.941-1.59-0.93-1.7 0.336-3.04 1.071-1.14 1.196-1.61 0.683-2.57-1.264-2.36-4.63-3.86-4.63-2.07 0 0.49-0.536 1.94-1.191 3.22l-1.191 2.34 1.478 1.54c1.801 1.88 1.873 3.14 0.242 4.29-1.84 1.28-3.35 0.26-3.35-2.28 0-1.38-0.448-2.46-1.407-3.42-1.732-1.73-2.166-1.75-3.975-0.12-1.223 1.1-1.447 1.84-1.53 5.02-0.145 5.52-0.15 5.5 2.327 7.95l2.292 2.27 0.008 4.78c0.004 2.62 0.164 5.35 0.354 6.06 0.37 1.38 1.849 1.68 3.628 0.73 1.355-0.73 2.559 0.61 2.036 2.25-0.513 1.62 0.952 2.09 2.781 0.89 1.744-1.15 2.655-0.74 4.502 2.01 1.12 1.66 1.782 2.05 3.907 2.3 3.254 0.39 3.992 0.87 3.992 2.6 0 1.48-0.378 1.69-1.614 0.9zm4.368-2.44c-0.159-2.79-0.021-3.21 1.479-4.48 0.91-0.78 2.021-2.2 2.47-3.16s1.184-2.39 1.633-3.18c0.45-0.78 0.821-1.84 0.826-2.33 0.004-0.5 0.674-1.53 1.487-2.3 1.449-1.36 1.496-1.36 2.293-0.27 0.447 0.61 0.814 1.7 0.814 2.42 0 1.83 2.211 3.16 4.507 2.7 2.302-0.46 4.515 1.16 3.408 2.49-0.983 1.19-6.192 3.83-8.202 4.17-1.511 0.25-1.741 0.55-1.897 2.44-0.197 2.37-0.502 2.61-1.539 1.19-0.462-0.63-1.062-0.81-1.779-0.53-1.018 0.39-1.002 0.47 0.281 1.44 1.638 1.24 1.204 1.58-2.661 2.09l-2.944 0.39-0.176-3.08zm131.05-10.68c-0.33-0.23-1.04-1.58-1.57-3-1.25-3.33-3.31-5.53-5.68-6.04-1.04-0.23-2.58-0.89-3.41-1.48-1.07-0.76-2.52-1.08-4.87-1.08-4.11 0-9.88 2.52-12.6 5.49-1.94 2.12-4.7 2.79-3.92 0.96 0.85-1.97 0.96-4.18 0.27-5.02-0.63-0.76-3.34-1.72-6.59-2.34-0.63-0.12-1.62-0.87-2.2-1.66-0.62-0.85-1.62-1.44-2.44-1.44-0.97 0-1.38-0.32-1.38-1.08 0-4.34 8.41-2.83 14.53 2.61 1.54 1.37 3.13 2.48 3.54 2.48 0.42 0 1.55-0.67 2.53-1.49 1.73-1.46 1.94-1.49 8.5-1.27 6.25 0.2 6.94 0.34 9.72 1.96 3.58 2.09 6.72 6 7.2 9 0.5 3.14-0.13 4.45-1.63 3.4zm-152.15-5.91c0-1.91-0.249-3.94-0.553-4.51-0.485-0.9-0.238-1.07 2.006-1.38 1.407-0.19 3.168-0.5 3.913-0.69 1.289-0.32 1.375-0.16 1.764 3.28 0.225 2 0.551 4.34 0.723 5.2l0.315 1.58h-8.168v-3.48zm111.8-43.2c-0.55-0.66-0.44-1.16 0.52-2.45 2.37-3.22-0.56-6.99-4.9-6.28-1.16 0.19-2.68 0.87-3.36 1.51-0.69 0.64-1.49 1.18-1.78 1.18-0.3 0.01-1.18 0.52-1.97 1.14-1.2 0.94-2.35 1.12-7.17 1.12-3.15 0-6.04-0.2-6.43-0.44-0.5-0.32-0.63-2.04-0.46-6.11 0.17-4.01 0.01-6.21-0.56-7.57-0.48-1.14-0.96-5.3-1.19-10.36-0.36-7.83-0.31-8.52 0.69-9.39 1.18-1.02 6.52-2.02 6.52-1.22 0 0.9-1.42 2.47-2.87 3.2-1.18 0.58-1.46 1.18-1.61 3.5-0.09 1.55 0.24 4.07 0.74 5.62 0.51 1.54 0.87 3.94 0.79 5.33-0.09 1.81 0.18 2.86 0.96 3.72 0.88 0.98 1.06 1.96 0.95 5.32-0.07 2.27 0.12 4.5 0.42 4.95 0.93 1.42 4.87 0.77 8.61-1.42 1.86-1.09 3.94-1.99 4.63-1.99s2.42-1.03 3.85-2.29c3.79-3.33 7.64-2.9 6.72 0.74-0.21 0.85 0.01 2.15 0.55 3.18 1.33 2.56 1.2 7.26-0.24 8.69-1.35 1.36-2.47 1.46-3.41 0.32zm58.62-13.46c-1.02-0.94-1.29-2.07-1.62-6.75-0.71-9.96-0.4-9.42-6.04-10.55-5.33-1.07-9.38-2.69-11.84-4.74-0.88-0.73-1.91-1.43-2.28-1.56-1.01-0.34-10.19-8.68-15.02-13.65-2.32-2.39-4.69-5.38-5.26-6.64-1.44-3.2-3.41-13.24-3.41-17.43 0-3.42 0.03-3.49 1.58-3.5 0.87 0 6.57-0.26 12.68-0.58 12.01-0.63 12.34-0.58 12.97 2.29 0.59 2.69 6.35 9.84 10.48 13.01 2.12 1.63 4 2.79 4.18 2.58 0.17-0.21 0.11-3.86-0.14-8.12-0.26-4.25-0.31-11.27-0.11-15.58 0.44-9.92 0.32-10.4-2.79-11.31-1.35-0.39-5.8-2.34-9.9-4.33-7.34-3.56-7.55-3.72-14.04-10.41-5.31-5.47-6.95-7.59-8.44-10.81-3.39-7.39-4.61-11.42-5.34-17.63-0.71-6.06-0.75-6.16-2.21-6.18-1.4-0.02-3.96-1.43-3.64-2.01 0.07-0.15 0.14-1.04 0.14-1.98 0-1.4-0.24-1.73-1.29-1.74-0.71-0.01-2.32-0.52-3.58-1.13s-2.71-1.11-3.23-1.13c-0.51-0.01-1.23-0.37-1.59-0.81-0.37-0.44-1.54-0.97-2.6-1.17-2.23-0.42-4.91-2.34-4.91-3.52 0-0.9 2.04-1.13 2.56-0.29 0.18 0.29 1.07 0.69 1.98 0.89s2.07 0.83 2.59 1.4c0.81 0.89 1.96 1.04 8.36 1.07 9.48 0.05 9.94 0.29 6.86 3.66-0.94 1.04-1.63 2.15-1.52 2.47 0.1 0.32 1.31 0.58 2.69 0.58 2.32 0 2.52-0.12 2.97-1.83 0.26-1.01 0.73-1.99 1.04-2.19 1-0.61 2.77 0.31 2.96 1.55 0.16 1.09 0.63 1.21 5.34 1.41 2.83 0.11 6.24 0.27 7.56 0.34 2.17 0.11 2.63-0.12 4.69-2.35 1.76-1.91 2.55-2.39 3.47-2.1 1.48 0.47 1.48 0.91 0.04 2.75-2.35 2.99-0.92 8.22 3.92 14.4 1.52 1.92 3.08 4.31 3.47 5.31 0.69 1.71 3.3 4.68 3.67 4.16 0.09-0.13 0.46-0.91 0.81-1.73 0.51-1.19 1.15-1.57 3.13-1.83 1.83-0.24 2.87-0.79 3.96-2.09 0.81-0.96 1.64-1.75 1.85-1.75s1.16 1.54 2.12 3.44c1.66 3.29 1.82 3.43 3.92 3.43 1.59 0 2.55 0.4 3.53 1.44 0.76 0.81 1.99 1.43 2.84 1.43 1.58 0 3.35 1 5.84 3.3 2.58 2.36 8.72 5.87 10.29 5.87 1.16 0 2.79 1.42 7.48 6.52 6.74 7.33 9.51 12.09 11.38 19.51 1.9 7.56 1.32 10.88-2.18 12.33-1.28 0.52-1.95 0.43-3.82-0.52-1.32-0.67-3.39-1.16-4.94-1.16-1.68 0-2.94-0.32-3.39-0.86-1.16-1.39-3.29-0.99-5.59 1.05-3.81 3.39-5.87 3.35-5.88-0.1 0-1.15-0.5-2.91-1.11-3.92-1.63-2.67-11.66-8.85-12.67-7.82-0.93 0.94 0.92 32.23 1.96 33.27 0.73 0.72 4.78-3.75 7.44-8.2l2.84-4.77 1.68 1.41c2.12 1.78 2.34 1.76 3.1-0.23 0.53-1.41 0.99-1.68 3.41-1.95 2.22-0.25 3.11-0.68 4.28-2.09 0.81-0.98 1.78-1.77 2.15-1.77 0.36 0 1.44 1.54 2.4 3.43 1.72 3.41 1.76 3.44 4.21 3.44 1.89 0 2.78 0.34 3.81 1.44 0.74 0.79 1.69 1.43 2.11 1.43 1.64 0 0.32 2.94-3.87 8.62-2.59 3.53-7.87 8.57-8.97 8.57-0.27 0-2.55 1.59-5.05 3.53-6.99 5.39-12.46 8.82-15.4 9.64-1.46 0.41-2.83 1.02-3.04 1.36s-0.53 5.27-0.7 10.96l-0.33 10.34-6.89 0.16c-6.21 0.14-7.02 0.04-8.11-0.98zm-54.76-3.62c-0.23-0.57-1.02-1.01-1.79-1.01-1.09 0-1.46-0.38-1.74-1.79-0.63-3.16-0.41-27.24 0.27-28.98 0.35-0.89 0.69-3.55 0.76-5.91 0.09-2.83 0.49-4.98 1.18-6.3 1.23-2.35 1.25-5.07 0.05-7.37-0.88-1.72-8.68-9.26-9.57-9.26-0.28 0-2.38-1.35-4.67-3.01-2.3-1.65-4.81-3.37-5.59-3.81s-3.26-2.18-5.5-3.87c-2.25-1.68-4.38-3.06-4.73-3.06s-1.87-0.88-3.36-1.96c-1.5-1.07-3.64-2.12-4.75-2.33-3.27-0.61-9.53-7.18-6.84-7.18 0.769 0 4.98 2.14 6.94 3.52 0.84 0.59 2.25 1.07 3.13 1.07 1.36 0 11.41 5.13 12.26 6.26 0.16 0.21 4.16 3.18 8.89 6.59 9.38 6.77 15.8 12.61 17.52 15.93 0.66 1.26 1.1 3.28 1.1 4.99 0 3.29-1.01 8.6-1.84 9.63-0.31 0.39-0.78 2.97-1.05 5.73-0.27 2.77-0.76 7.87-1.1 11.34-0.52 5.26-0.47 7.06 0.29 10.9 0.88 4.47 0.99 11.95 0.14 9.88zm-26.79-13.3c-1.1-1.33-0.48-2.88 1.23-3.07 1.67-0.2 3.11 1.57 2.53 3.08-0.4 1.07-2.88 1.05-3.76-0.01zm0.05-29.97c-0.73-1.37 0.08-2.73 1.34-2.24 0.58 0.22 0.89 0.85 0.77 1.61-0.24 1.64-1.38 1.98-2.11 0.63zm-9.96-5.07c-1.58-0.85-2.11-2.71-0.97-3.41 0.33-0.21 1.38-0.06 2.32 0.33 1.36 0.56 1.68 1.01 1.54 2.16-0.21 1.8-0.88 2.02-2.89 0.92zm139.85-4.07c-0.74-0.2-1-0.86-1-2.56 0-2.04 0.12-2.24 1.16-1.92 1.28 0.41 4 2.92 4 3.69 0 0.97-2 1.35-4.16 0.79zm-149.58-2.45c-1.173-0.53-2.612-1.4-3.197-1.93-0.586-0.53-1.56-0.97-2.166-0.97-0.605-0.01-1.746-0.52-2.534-1.14-0.788-0.61-1.799-1.12-2.247-1.13s-1.222-0.36-1.72-0.79c-1.027-0.88-5.261-3.13-9.502-5.04-4.552-2.05-7.172-4.05-7.013-5.36 0.178-1.47 2.452-1.31 4.163 0.3 0.662 0.62 1.504 1.13 1.87 1.13s1.51 0.52 2.542 1.15 2.307 1.14 2.832 1.14 1.041 0.21 1.146 0.46c0.324 0.77 6.701 4.13 7.832 4.13 0.586 0 1.533 0.52 2.103 1.15 1.242 1.37 2.74 1.47 3.75 0.25 0.41-0.49 1.395-0.81 2.219-0.71 1.365 0.16 1.468 0.36 1.295 2.56-0.12 1.52 0.152 2.91 0.747 3.81 1.22 1.86 0.527 2.18-2.12 0.99zm-24.31-1.45c-0.198-0.52-0.086-1.22 0.25-1.56 0.873-0.87 2.528-0.07 2.3 1.11-0.254 1.32-2.091 1.64-2.55 0.45zm-17.304-22.83c-0.685-0.73-1.269-2.08-1.298-3.01-0.093-3.02-5.344-11.37-9.835-15.64-1.813-1.72-3.296-3.46-3.296-3.85 0-1.23-2.901-4.26-4.074-4.26-1.157 0-5.305 2.39-5.942 3.42-0.203 0.33-0.878 0.6-1.5 0.6-1.411 0-6.355 2.46-7.353 3.67-0.409 0.49-1.672 1.15-2.807 1.46-1.675 0.46-2.328 0.38-3.458-0.42-0.766-0.54-1.799-1.25-2.295-1.56-6.7667-4.3-7.9981-6.03-6.083-8.57 0.4628-0.61 0.8508-1.64 0.8621-2.29 0.0302-1.73 2.5339-4.57 3.6489-4.15 1.129 0.44 1.196 2.31 0.116 3.21-1.152 0.95-1.682 4.51-0.939 6.31 0.349 0.84 1.334 1.83 2.189 2.2 0.856 0.37 1.99 0.99 2.522 1.38 0.776 0.57 1.267 0.55 2.505-0.12 1.987-1.06 2.341-2.06 1.184-3.34-1.322-1.46-1.158-2.52 0.647-4.18 2.595-2.38 7.098-5.14 8.095-4.95 1.613 0.31 1.417 2.48-0.359 3.97-0.901 0.76-1.809 1.83-2.018 2.37-0.572 1.49 1.909 1.29 5.315-0.44 1.555-0.79 3.417-1.43 4.137-1.43 0.719-0.01 2.153-0.52 3.185-1.15s2.282-1.15 2.777-1.15c0.496 0 1.586-0.36 2.422-0.8 7.281-3.88 12.939-6.07 15.641-6.07 1.913 0 3.416-0.37 4.42-1.08 1.002-0.71 2.846-1.16 5.398-1.32 5.082-0.31 5.666-0.94 6.209-6.61 0.643-6.71 2.015-13.62 3.005-15.14 0.937-1.44 3.818-9.86 3.818-11.16 0-0.75 1.274-3.62 3.471-7.79 0.613-1.17 1.114-3.06 1.114-4.21 0-1.22 0.477-2.7 1.147-3.55 0.63-0.8 1.151-2.13 1.156-2.96 0.005-0.82 0.517-3.43 1.136-5.79 1.339-5.11 1.459-8.78 0.324-9.91-0.453-0.46-0.904-1.96-1.003-3.34-0.23-3.2-1.566-3.59-3.864-1.13-1.861 1.99-4.054 2.38-4.054 0.71 0-1.55 1.571-2.73 6.878-5.2 0.788-0.37 2.016-1.56 2.728-2.65 1.159-1.78 1.564-1.98 3.869-1.98 2.16 0 2.574 0.17 2.574 1.1 0 0.61-0.417 1.52-0.926 2.03s-1.142 1.76-1.407 2.77c-0.264 1.01-0.799 2.91-1.188 4.23-0.645 2.19-0.57 2.74 0.857 6.3 1.773 4.44 1.725 7.1-0.181 10.19-0.642 1.03-1.168 2.4-1.168 3.04 0 0.63-0.382 2.06-0.849 3.18-1.423 3.41-1.747 8.16-0.669 9.81 1.185 1.81 2.646 5.98 2.656 7.6 0.015 2.08 0.644 3.05 1.987 3.05 1.414 0 2.604 1.18 3.627 3.58 1.04 2.45 2.32 2.01 2.53-0.86 0.21-2.94 1.46-3.26 2.75-0.71l0.86 1.72 0.19-2.53c0.13-1.84 0.55-2.82 1.53-3.59 0.75-0.59 1.44-1.65 1.54-2.35 0.16-1.13 0.52-1.28 3.05-1.28 2.84 0 2.87 0.02 3.05 1.94 0.14 1.51 0 1.87-0.65 1.62-1-0.38-4.68 2.01-5.22 3.4-0.26 0.68 0.12 1.4 1.22 2.3 2.04 1.67 2.7 1.45 2.94-0.98 0.18-1.91 0.87-2.8 2.16-2.82 0.87-0.01 2.79 6.26 2.59 8.44-0.12 1.17-2.27 0.82-2.97-0.49-0.47-0.87-0.82-1.03-1.27-0.58-1.06 1.06 0.61 3.29 3 4.01 1.19 0.35 3.81 0.65 5.82 0.66 2.08 0.01 5.12 0.5 7.04 1.15 1.87 0.62 4.06 1.14 4.88 1.15 2.83 0.04 10.64 2.67 10.84 3.64 0.27 1.33-0.94 1.6-4.2 0.92-1.58-0.33-5.83-1.12-9.46-1.75-9.48-1.65-14.7-2.78-18.66-4.01-1.92-0.6-5.22-1.34-7.35-1.64s-4.17-0.79-4.55-1.08c-0.37-0.29-1.4-0.7-2.28-0.91-1.853-0.45-6.68-5.32-6.695-6.76-0.005-0.53-0.489-1.12-1.076-1.3-0.586-0.19-1.882-1.24-2.88-2.33-0.997-1.1-2.046-2-2.331-2-0.908 0-2.32 1.76-2.32 2.9 0 0.6-0.515 1.93-1.144 2.96-0.63 1.04-1.146 2.6-1.147 3.49-0.001 0.88-0.498 2.7-1.105 4.03-0.656 1.44-1.244 4.39-1.45 7.27-0.435 6.08-1.58 9.66-3.759 11.74-2.299 2.21-5.055 3.06-11.169 3.46-4.721 0.31-7.143 0.97-12.225 3.32-2.166 1.01-2.687 2.57-1.341 4.02 1.513 1.63 3.701 8.23 3.341 10.09-0.169 0.87 0.154 2.17 0.797 3.22 0.733 1.19 1.239 3.58 1.577 7.45 0.274 3.13 0.571 5.95 0.66 6.27 0.312 1.1 0.021 3.15-0.447 3.15-0.261 0-1.034-0.6-1.72-1.33zm-14.766-0.6c-0.576-1.5 0.013-2.94 1.205-2.94 0.881 0 1.138 0.38 1.138 1.71 0 1.87-1.744 2.79-2.343 1.23zm47.618-9.69c-3.317-2.8-4.339-3.49-7.333-4.94-1.198-0.58-3.52-2-5.158-3.17-1.639-1.16-5.494-3.66-8.568-5.56l-5.588-3.45v-2.83c0-1.55 0.143-2.82 0.318-2.82 0.811 0 7.566 4.93 8.751 6.39 0.732 0.9 1.593 1.63 1.912 1.63 0.653 0 5.826 3.5 6.111 4.14 0.101 0.22 1.133 0.98 2.293 1.68s3.27 2.21 4.688 3.36c1.419 1.15 3.016 2.25 3.549 2.45 1.078 0.39 2.434 2.31 3.022 4.28 0.589 1.97-0.737 1.59-3.997-1.16zm122.8-22.58c-0.74-0.21-1-0.87-1-2.57 0-2.09 0.11-2.25 1.26-1.89 1.58 0.51 3.35 2.56 3.17 3.7-0.15 0.89-1.69 1.23-3.43 0.76zm8.77-5.87c-0.96-1.9-1.74-3.73-1.74-4.05 0-1.25 2.15-0.5 3.99 1.39 1.72 1.79 1.86 2.17 1.39 3.83-0.83 2.87-1.75 2.58-3.64-1.17zm-26.08-2.49c-0.12-0.39-0.38-4.07-0.56-8.17-0.6-13.18-1.01-17.48-1.67-17.48-0.34 0-2.07 1.43-3.82 3.17-3.34 3.3-4.77 3.86-9.45 3.72-1.26-0.04-3.64-0.46-5.29-0.94s-3.26-0.71-3.57-0.52c-1.26 0.78-6.33-0.43-7.76-1.85-2.47-2.48-1.85-4.73 2.64-9.6 0.87-0.94 2.13-3.2 2.81-5.01 0.67-1.81 1.47-3.3 1.77-3.3s0.83-0.64 1.19-1.42c0.59-1.3 2.41-2.41 3.48-2.13 0.24 0.06 0.43-0.27 0.43-0.74 0-1.2 3.32-2.69 10.81-4.85 6.4-1.85 9.75-2.05 11.14-0.67 0.35 0.36 0.28 1.92-0.21 4.34l-0.75 3.79 3.56 3.59c2.19 2.2 3.78 4.38 4.12 5.6 0.42 1.51 1.01 2.17 2.42 2.69 1.03 0.37 2.56 1.26 3.4 1.98 1.51 1.28 1.53 1.4 1.79 10.18 0.22 7.46 0.46 9.29 1.47 11.46 1.39 2.97 1.6 6.2 0.44 6.64-0.44 0.17-1.66-0.22-2.72-0.87-1.13-0.69-2.93-1.18-4.3-1.18-1.4 0-2.66-0.36-3.08-0.87-1.17-1.41-3.1-0.98-5.16 1.15-2.08 2.15-2.77 2.43-3.13 1.29zm-178.42-7.45c-0.313-0.39-0.921-1.71-1.35-2.92-0.715-2.02-0.688-2.27 0.317-3 0.942-0.69 1.224-0.69 1.997 0.01 1.452 1.33 3.081 4.77 2.71 5.73-0.409 1.07-2.87 1.19-3.674 0.18zm11.66 0.23c-0.642-1.04 0.353-2.38 1.768-2.38 1.136 0 1.376 0.25 1.228 1.29-0.19 1.34-2.353 2.13-2.996 1.09zm199.22-5.98c-0.36-0.44-0.83-1.63-1.03-2.63-0.22-1.07-1.04-2.3-2.01-2.99-0.9-0.65-1.65-1.57-1.65-2.06 0-0.66-0.33-0.79-1.28-0.49-3.15 0.99-3.59 0.76-3.61-1.87-0.01-2.09-0.3-2.7-1.86-3.92-2.25-1.76-2.31-2.64-0.29-4.11 1.44-1.05 1.5-1.25 0.82-2.75-0.64-1.4-0.61-1.71 0.26-2.34 0.88-0.64 0.91-0.99 0.29-2.89-0.53-1.59-0.55-2.59-0.1-3.77 0.34-0.89 0.62-2.75 0.62-4.13 0-2.19 0.25-2.71 1.98-4.03l1.99-1.51 4.04 2.18c5.29 2.86 12.56 8.39 17.14 13.02 3.54 3.6 3.75 3.97 6.69 12.22 1.76 4.95 2.82 8.72 2.53 9.03-0.28 0.28-3.16 0.75-6.41 1.03-5 0.44-11.42 1.44-16.26 2.55-0.65 0.15-1.49-0.1-1.86-0.54zm-211.08-4.85c-0.812-2.13 0.223-5.64 1.781-6.05 1.022-0.26 1.143-0.01 1.136 2.37-0.011 3.51-0.512 5.25-1.507 5.25-0.444 0-1.078-0.71-1.41-1.57zm110.39-3.59c-0.2-0.31-0.98-0.57-1.73-0.57-1.47 0-2.9-1.87-2.24-2.94 0.54-0.86 4.14-0.2 5.47 1 1.43 1.29 1.41 3.09-0.03 3.09-0.62 0-1.28-0.26-1.47-0.58zm-80.119-0.71c-0.353-0.99 0.667-2.83 1.336-2.42 0.868 0.54 0.647 3.13-0.267 3.13-0.447 0-0.928-0.32-1.069-0.71zm106.77-2.17c-0.5-0.33-2.36-0.42-4.43-0.21-2.96 0.3-3.89 0.16-5.51-0.79-1.08-0.64-2.82-1.34-3.89-1.58-1.06-0.23-2.27-0.9-2.68-1.49s-1.12-1.07-1.58-1.07c-0.45 0-1.79-0.52-2.97-1.15-1.17-0.63-2.53-1.15-3-1.16-1.15-0.01-2.92-1.51-4.83-4.1-0.89-1.2-2.25-2.26-3.15-2.46-2.04-0.45-10.08 1.74-12.23 3.33-2.16 1.6-3.32 0.85-4.36-2.83-0.43-1.54-1.05-3.45-1.37-4.24l-0.59-1.43-0.54 1.57c-0.4 1.15-0.3 2.23 0.38 4.01 0.61 1.62 0.84 3.57 0.68 5.79-0.29 3.86-0.87 4.77-2.514 3.89-1.018-0.54-1.133-1.28-1.214-7.9-0.079-6.43-0.226-7.45-1.23-8.52-1.461-1.55-1.443-2.69 0.064-4.05 1.053-0.96 1.158-1.5 0.836-4.34-0.559-4.95 0.39-4.89 4.778 0.27 1.39 1.62 2.35 3.34 2.35 4.18 0 2.12 2.12 6.39 3.68 7.41 1.37 0.9 2.01 0.86 7.07-0.41 3.87-0.98 7.02 0.21 12.25 4.65 8.55 7.26 8.9 7.49 11.1 7.49 2.86 0 3.93-0.7 5.13-3.35 1.1-2.45 5.2-5.82 7.07-5.82 0.61 0 2.29-0.91 3.74-2.01 2.95-2.25 4.96-3.15 7.05-3.15 0.77 0 2.66-0.99 4.2-2.2 2.21-1.75 3.14-2.15 4.55-1.95 2.76 0.41 3.37 1.61 1.34 2.66-0.93 0.48-1.85 0.71-2.04 0.52-0.42-0.42-3.98 1.93-6.54 4.33-1.03 0.97-2.38 2.94-3.01 4.39-1.18 2.76-1.97 2.9-2.88 0.51-0.72-1.91-1.54-1.73-2.49 0.55-0.44 1.07-1.09 2.12-1.44 2.33-1.11 0.69-0.73 4.44 0.59 5.85 2.02 2.15 0.12 4.14-2.37 2.48zm101.26-0.58c-1.96-1.54-2-3.27-0.09-3.75 1.98-0.5 3.25 0.68 3.03 2.82-0.22 2.19-1.01 2.44-2.94 0.93zm-230.68-5.25c-1.051-1.05-0.839-2.75 0.344-2.75 0.568 0 1.312-0.28 1.655-0.62 1.11-1.11 1.433 0.47 0.475 2.32-0.982 1.9-1.433 2.09-2.474 1.05zm23.386-2.73c0-1.52 2.171-2.72 2.651-1.47 0.399 1.04-0.718 2.6-1.862 2.6-0.434 0-0.789-0.51-0.789-1.13zm160.48-1.31c-1.88-3.07-1.2-5.01 1.73-5.01 1.26 0 4 1.77 4 2.58 0 0.52-3.58 4.29-4.08 4.29-0.28 0-1.03-0.83-1.65-1.86zm-152.76-0.45c-0.364-0.59 2.171-4.96 4.29-7.41 1.103-1.27 2.9-1.42 3.283-0.27 0.291 0.88-5.431 8.27-6.4 8.27-0.443 0-0.972-0.26-1.173-0.59zm-28.566-1.98c-0.381-1 2.117-2.89 3.047-2.31 0.958 0.59 0.693 1.93-0.51 2.57-1.517 0.81-2.149 0.75-2.537-0.26zm24.583-1.41c-0.654-1.06 0.293-2.89 1.493-2.89 0.911 0 1.108 0.32 0.964 1.57-0.185 1.6-1.758 2.45-2.457 1.32zm-27.493-3.29c-0.22-0.58 0.105-1.62 0.799-2.56 0.644-0.87 1.171-1.88 1.171-2.23 0-0.36 0.516-1.31 1.147-2.11 0.63-0.8 1.146-1.8 1.146-2.21 0-0.42 1.032-2.72 2.293-5.11 1.26-2.39 2.292-4.93 2.292-5.62 0-0.7 0.516-2.24 1.147-3.41 0.63-1.18 1.146-3.12 1.146-4.32 0-1.19 0.516-3.18 1.146-4.42 0.631-1.23 1.147-3.06 1.147-4.05 0-1 0.515-2.47 1.146-3.27 0.63-0.8 1.146-1.73 1.146-2.05 0-0.33 0.336-0.81 0.747-1.06s1.637-1.74 2.723-3.31 2.159-3.12 2.383-3.44c1.075-1.55 11.049-12.68 11.722-13.08 0.421-0.25 0.767-0.82 0.767-1.25 0-0.88 6.327-7.75 7.143-7.75 0.286 0 1.137-0.58 1.891-1.29 1.452-1.37 5.5-3.87 8.579-5.3 3.173-1.48 3.741-3.01 4.228-11.37 0.67-11.52 2.185-15.29 9.958-24.81 2.63-3.22 6.585-7.1 7.246-7.1 0.249 0 1.925-1.03 3.725-2.29 2.607-1.83 3.777-2.29 5.787-2.29 1.38 0 3.3-0.41 4.25-0.9 1.59-0.82 1.84-0.82 2.74 0 0.57 0.51 2.02 0.9 3.35 0.9 1.3 0 3.08 0.28 3.97 0.62 0.89 0.35 3.23 0.86 5.21 1.15 3.97 0.58 7.85 2.66 8.44 4.55 0.29 0.88 0.78 1.15 1.88 1.02 1.29-0.15 1.76-0.85 3.56-5.34 3.04-7.58 5.3-11.25 10.26-16.72 3.64-4.02 3.65-5.54 0.05-12.54-2.59-5.03-2.69-5.71-1.13-7.704 0.61-0.789 1.12-1.952 1.13-2.586 0.02-1.926-3.51-6.669-7.15-9.591-1.88-1.519-3.6-3.213-3.8-3.765s-1.5-1.969-2.87-3.15c-1.38-1.181-3.02-2.705-3.65-3.386-5.14-5.561-12.22-12.687-13.02-13.123-0.76-0.41-1.52-0.059-3.27 1.528-2.83 2.552-4.76 2.54-5.2-0.031-0.43-2.508-2.16-2.504-4.6 0.01-1.86 1.919-2 2.322-2.05 5.897-0.05 4.418 0.61 6.264 4.22 11.719 2.12 3.198 2.44 4.019 1.85 4.729-1.01 1.225-2.07 1.074-5.03-0.718-4.04-2.453-7.937-6.866-9.232-10.46-1.013-2.813-1.073-3.708-0.556-8.298 0.318-2.83 0.427-6.828 0.24-8.884-1.075-11.871-1.106-11.077 0.498-12.584 1.876-1.762 1.889-3.853 0.041-6.576-0.788-1.161-1.433-2.634-1.433-3.273 0-1.494 6.792-9.104 8.122-9.104 0.56 0 2.17 0.815 3.59 1.811 2.15 1.517 2.71 1.692 3.45 1.076 0.49-0.404 0.89-1.464 0.89-2.355 0-2.287 3.05-4.545 6.14-4.545 3.12 0 3.78-0.929 3.32-4.698l-0.37-3.039 3.96-3.869c2.22-2.1708 4.47-3.8691 5.11-3.8691 0.63 0 2.93 1.5459 5.11 3.4351 2.17 1.89 5.57 4.751 7.54 6.359 3.99 3.258 4.7 4.21 4.3 5.763-0.4 1.507-0.82 1.37-4.18-1.371-5.24-4.266-5.02-4.158-6.3-2.998-0.62 0.564-1.13 1.33-1.13 1.701 0 1.039 4.36 4.306 5.75 4.306 0.68 0 1.84 0.482 2.59 1.071l1.36 1.071-2.61 2.654c-2.16 2.188-2.99 2.657-4.71 2.664-3.43 0.014-3.71 0.452-3.25 5.064 0.36 3.561 0.26 4.308-0.8 6.012-0.66 1.071-1.2 2.262-1.2 2.648s-0.51 1.358-1.15 2.159c-1.88 2.401-1.46 3.826 2.3 7.701 1.89 1.951 3.44 3.89 3.44 4.309 0 0.418 5.17 5.87 11.48 12.116 12.27 12.132 12.16 11.951 9.54 14.863-0.64 0.709-1.46 1.29-1.82 1.29-1.21 0-4.09-3.866-4.97-6.674-0.99-3.139-6.82-10.214-8.93-10.838-1.23-0.364-5.85-5.329-5.9-6.354-0.02-0.272-1.93-2.525-4.25-5.008-3.17-3.395-4.58-4.514-5.7-4.514-1.79 0-3.21 1.069-3.21 2.418 0 1.382 10.28 11.481 12.06 11.849 0.8 0.165 3.95 2.665 7 5.555 4.94 4.675 5.59 5.529 5.94 7.746 0.34 2.185 0.84 2.87 4.14 5.588 2.06 1.704 4.06 3.097 4.42 3.097 0.37 0 1.89-1.354 3.37-3.009s3.07-3.422 3.53-3.928c0.79-0.873 4.62-2.937 6.61-3.566 1.78-0.562 4.25 1.68 6.43 5.819 1.33 2.529 2.94 4.655 4.27 5.628 2.92 2.149 7.83 8.143 8.75 10.692 0.62 1.71 0.63 2.62 0.04 4.93-0.93 3.6-0.74 3.94 5.09 9.23 5.52 5.01 6.06 5.83 5.04 7.67-1.95 3.52-4.07 6.18-5.3 6.64-0.74 0.29-1.52 0.79-1.73 1.13-0.2 0.33-1.11 0.61-2.01 0.61-1.24 0-2.21-0.67-4.01-2.73-1.3-1.49-3.66-3.81-5.24-5.14-2.68-2.25-3.05-2.4-5.41-2.07-1.98 0.27-2.6 0.15-2.87-0.55-0.46-1.19 1.34-3.84 2.6-3.84 1.29 0 6.82-4.39 7.52-5.96 0.29-0.67 1.16-2.24 1.93-3.5s1.41-2.74 1.43-3.28c0.06-2.51-3.98-8.084-7.57-10.436-0.81-0.532-1.88-1.805-2.36-2.827-0.49-1.023-1.44-2.361-2.12-2.974-0.67-0.614-1.59-1.817-2.04-2.676-1.22-2.361-2.73-2.954-4.8-1.884-0.95 0.491-1.72 1.224-1.72 1.63 0 1.307-2.77 6.524-3.64 6.858-1.48 0.567-10.12 8.019-10.12 8.729 0 0.37 0.78 2.13 1.72 3.9 0.95 1.77 1.72 3.58 1.72 4.01s0.52 1.24 1.15 1.82c0.63 0.57 1.14 1.44 1.14 1.95 0 1.34-1.94 4.29-4.44 6.77-5.1 5.04-9.04 11.17-9.66 15-0.2 1.31-0.59 2.51-0.86 2.68-1.11 0.68-2.82 5.81-3.45 10.36l-0.69 4.89-3.02 1.38c-1.66 0.76-3.24 1.39-3.5 1.39s-2.81 1.22-5.66 2.72c-5.79 3.04-11.1 6.97-15.49 11.46-2.32 2.38-3.33 3.01-4.76 3.01-1.12 0-1.94-0.34-2.16-0.91-0.65-1.71-5.633-0.39-17.092 4.54-2.931 1.26-5.429 2.82-6.922 4.33-1.286 1.3-2.757 2.36-3.271 2.36-0.814 0-4.093 1.86-5.892 3.35-0.335 0.28-1.236 0.84-2.001 1.25-1.96 1.05-8.373 7.76-11.146 11.67-0.63 0.89-2.039 2.55-3.131 3.7-4.052 4.25-11.485 13.41-11.485 14.16 0 0.24-0.645 1.28-1.433 2.31-0.788 1.04-1.438 2.48-1.445 3.21s-0.523 2.45-1.147 3.83c-0.623 1.37-1.133 3.31-1.133 4.3 0 1-0.516 2.78-1.147 3.95-0.63 1.18-1.148 2.98-1.15 4.01-0.002 1.02-0.516 2.63-1.142 3.58-0.627 0.95-1.147 2.11-1.156 2.58s-0.521 1.5-1.137 2.29-1.127 1.85-1.134 2.36-0.489 1.54-1.071 2.29c-0.583 0.76-1.222 2.04-1.421 2.85-0.456 1.88-2.522 4.54-3.519 4.54-0.416 0-0.924-0.44-1.13-0.97zm181.06-5.13c-0.9-0.83-2.29-1.69-3.08-1.9-0.88-0.24-1.57-0.92-1.77-1.78-0.26-1.12-0.78-1.45-2.59-1.68l-2.27-0.29-0.18-3.44c-0.09-1.89-0.42-3.68-0.71-3.98-1.13-1.13-0.44-1.47 3.04-1.47 2.6 0 4.41-0.4 6.64-1.43 1.69-0.79 3.3-1.29 3.59-1.11 0.28 0.18 0.52 1.92 0.53 3.87 0.01 2.63 0.45 4.58 1.72 7.54 2.08 4.88 2.11 5.67 0.24 6.52-2.21 1-3.37 0.81-5.16-0.85zm26.99-2.1c-2.03-3.1-1.54-7.28 0.86-7.28 0.62 0 1.13 0.24 1.13 0.52s0.9 1.05 2 1.7c2.64 1.56 2.6 3.07-0.13 4.93-2.62 1.77-2.78 1.78-3.86 0.13zm11.59-0.69c-0.21-1.07 0.17-1.88 1.43-3.11 1.99-1.95 3.29-1.73 3.29 0.56 0 1.06-0.51 2.02-1.51 2.8-1.99 1.57-2.88 1.5-3.21-0.25zm-29.31-4.91c-0.57-0.96-0.95-1.84-0.84-1.95s1.73-0.87 3.6-1.7c2.94-1.29 3.51-1.39 4.22-0.68 0.52 0.52 0.64 1.13 0.32 1.69-0.54 0.96-5.08 4.4-5.81 4.4-0.25 0-0.92-0.79-1.49-1.76zm-151.1-1.37c0-0.46 0.516-1.12 1.146-1.45 0.631-0.34 1.147-1.11 1.147-1.71 0-1.49 0.863-1.9 1.754-0.83 0.62 0.75 0.494 1.11-0.795 2.31-0.843 0.78-1.532 1.67-1.532 1.97s-0.387 0.55-0.86 0.55-0.86-0.38-0.86-0.84zm8.786-11.32c-0.705-0.92-2.481-8.39-2.481-10.44 0-0.83-0.546-3.11-1.213-5.07-1.02-3-1.16-4.39-0.881-8.78 0.182-2.86 0.605-5.92 0.94-6.8 0.334-0.88 0.76-3.57 0.947-5.97 0.259-3.35 0.678-4.88 1.784-6.52 0.794-1.18 1.676-2.15 1.958-2.15 1.007 0 1.173 1.78 0.26 2.79-0.666 0.74-0.932 2.15-0.938 4.99-0.004 2.18-0.39 5.59-0.858 7.57-1.433 6.08-1.727 12.78-0.662 15.07 0.504 1.08 1.188 3.21 1.52 4.72 0.331 1.52 1 3.37 1.486 4.11 1.183 1.8 0.911 6.81-0.384 7.05-0.501 0.1-1.167-0.16-1.478-0.57zm8.409-11.51c0-0.49 0.694-1.44 1.543-2.11 1.231-0.97 2.184-1.18 4.728-1.04 3.002 0.16 3.197 0.26 3.368 1.74 0.17 1.49 0.048 1.58-2.07 1.58-1.238 0-3.447 0.16-4.91 0.36-2.185 0.3-2.659 0.21-2.659-0.53zm22.574-1.81c-0.53-1.37 0.3-2.03 2.56-2.03 3.56 0 4.65-2.43 2.38-5.32-0.63-0.8-1.15-1.93-1.15-2.51s-0.42-1.83-0.93-2.78c-0.81-1.51-1.34-3.34-2.84-9.8-0.21-0.91-0.51-4.93-0.66-8.94-0.21-5.82-0.07-7.85 0.7-10.17 0.97-2.94 1.22-3.17 2.83-2.55 1.16 0.45 1.18 4.76 0.03 7.96-0.46 1.27-0.83 3.37-0.84 4.69-0.01 3.83 2.22 5.3 6.37 4.18 4.93-1.33 6.73-3.72 8.2-10.87 0.45-2.17 6.36-8.03 8.1-8.03 2.58 0 2.36 1.65-0.54 4.13-3.18 2.72-4.37 4.81-4.37 7.65 0 1.66-0.57 2.78-2.72 5.36-1.5 1.8-3.11 3.85-3.58 4.56-0.59 0.9-1.64 1.41-3.35 1.64-2.87 0.38-3.68 1.6-1.96 2.96 1.33 1.06 2.6 3.4 3.88 7.18 0.84 2.46 0.82 2.76-0.27 5.17-0.65 1.41-1.17 3.17-1.17 3.91 0 2.13-1.29 3.37-4.05 3.9-3.9 0.75-6.26 0.65-6.62-0.29zm23.57-13.35c-0.95-0.14-2.03-0.5-2.4-0.8-0.92-0.77-6.54-2.78-7.75-2.78-1.03 0-2.18-1.61-2.18-3.05 0-0.46 0.78-1.15 1.72-1.54 0.95-0.39 1.72-0.89 1.72-1.1 0-0.96 3.99-4.63 5.03-4.63 1.21 0 11.09-9.53 13.43-12.95 1.44-2.11 2.08-2.49 4.93-2.86 4.13-0.53 7.1-3.16 9.59-8.5 1.8-3.86 4.9-7.55 7.18-8.55 2.12-0.92 6.27-5.89 6.27-7.5 0-0.72 0.44-2.18 0.99-3.26 1.53-3.01 2.81-8.5 2.94-12.58 0.24-7.49 1.51-10.86 4.12-10.86 2.25 0 2.4 0.53 0.9 3.1-1.16 1.98-1.43 3.44-1.77 9.51-0.21 3.94-0.76 8.45-1.21 10.03-0.44 1.57-1.08 3.97-1.41 5.32-0.76 3.1-6.44 9.82-10.51 12.43-3.54 2.28-4.28 3.08-6.63 7.29-1.91 3.42-3.52 4.67-8.35 6.51-2.32 0.88-4.52 2.77-11.64 9.95-4.82 4.87-9.02 9.32-9.31 9.87-0.76 1.42 1.37 2.79 4.32 2.79 1.96-0.01 2.49-0.28 3.55-1.86 1.58-2.36 4.2-8.66 4.2-10.07 0-1.43 1.99-3.16 3.91-3.4 1.79-0.23 2.97-1.55 2.97-3.34 0-1.18 0.97-1.96 2.42-1.96 0.4 0 0.49 1.14 0.27 3.28-0.38 3.71-1.3 4.74-4.21 4.74-2.04 0-3.06 1.2-3.06 3.58 0 0.75-0.38 1.86-0.84 2.47-0.47 0.62-0.85 1.73-0.86 2.49-0.03 1.61-2.14 6.04-3.42 7.16-1.17 1.02-2.77 1.37-4.91 1.07zm-62.143-22.46c-0.446-0.28-2.833-0.69-5.305-0.91-4.799-0.42-5.677-0.92-4.324-2.46 1.012-1.15 1.668-4.52 1.609-8.27-0.038-2.43 0.107-2.75 1.385-3.07 1.72-0.43 1.851-1.68 0.281-2.66-1.571-0.98-1.438-1.96 0.327-2.4 1.897-0.48 1.551-1.5-0.935-2.76-2.194-1.12-2.577-2.33-0.825-2.61 2.353-0.38 2.814-0.69 2.102-1.4-0.962-0.96-0.828-1.56 0.454-2.04 1.691-0.62 0.544-1.93-2.067-2.36-2.947-0.48-2.843-1.75 0.227-2.77 2.584-0.86 2.807-1.25 1.81-3.11-0.903-1.69 0.02-2.22 2.489-1.44 2.244 0.7 2.947 2.11 1.057 2.11-0.795 0-1.015 0.3-0.806 1.1 0.191 0.73-0.131 1.32-0.972 1.77l-1.258 0.67 1.491 1.56c1.526 1.59 1.919 3.17 0.943 3.77-0.302 0.19-0.413 0.69-0.248 1.12s-0.266 1.18-0.957 1.66l-1.257 0.88 1.218 1.55c1.469 1.87 1.541 2.88 0.255 3.6-0.902 0.5-0.902 0.6 0 1.5 1.358 1.36 1.216 1.89-0.835 3.14-1.439 0.87-1.832 1.53-1.965 3.29-0.249 3.28-0.738 6.46-1.079 7.01-0.166 0.27 1.177 0.67 2.986 0.88 3.559 0.43 7.015 1.45 7.015 2.09 0 0.22-0.408 0.55-0.906 0.75-1.099 0.42-0.93 0.43-1.91-0.19zm81.723-21.63c-1-0.99-0.21-3.02 1.91-4.93 1.26-1.13 2.29-2.48 2.29-3.01 0-0.52 0.52-1.61 1.15-2.41s1.15-2.33 1.15-3.39 0.51-2.89 1.14-4.07c0.63-1.17 1.15-2.8 1.15-3.61s0.23-1.71 0.52-2.01 1.47-3 2.63-5.99c2.08-5.37 3.81-8.03 5.22-8.03 1.14 0 1.58 2.26 0.66 3.34-1.63 1.91-3.87 6.58-3.87 8.06 0 0.82-1.01 3.82-2.26 6.66-1.24 2.84-2.71 6.68-3.26 8.53-0.55 1.86-1.59 4.09-2.32 4.96-0.74 0.87-1.33 1.81-1.33 2.1 0 0.54-3.56 4.18-4.09 4.18-0.17 0-0.48-0.17-0.69-0.38zm-84.638-18.82c-0.573-0.69-0.558-1.05 0.073-1.81 0.613-0.74 0.628-1.01 0.07-1.19-1.023-0.35-0.885-1.72 0.237-2.35 0.844-0.47 0.811-0.57-0.287-0.92-0.682-0.22-1.24-0.77-1.24-1.22 0-0.61 0.822-0.82 3.296-0.83 1.813 0 3.554-0.2 3.869-0.43 1.187-0.87 2.579-4.85 2.579-7.38 0-2.1 0.17-2.55 0.86-2.27 0.473 0.19 1.247 0.5 1.719 0.7 0.578 0.23 0.866-0.01 0.878-0.72 0.01-0.59 0.361-1.52 0.78-2.07 0.42-0.55 0.645-1.62 0.501-2.37-0.43-2.25 0.85-2.27 3.57-0.04 2.756 2.26 2.783 2.25 3.423-1.6 0.408-2.45 1.11-2.67 2.974-0.92l1.309 1.23 0.59-1.55c0.325-0.86 0.591-1.75 0.591-1.98 0-0.24 0.355-0.92 0.789-1.51 0.762-1.04 0.854-1.02 2.616 0.46l1.826 1.53 2.339-2.71c2.547-2.96 3.713-3.57 4.233-2.21 0.274 0.71 0.543 0.74 1.466 0.18 0.947-0.57 1.267-0.51 1.947 0.42 0.45 0.6 0.9 0.99 1 0.86 0.1-0.14 0.62-0.96 1.17-1.82 0.54-0.87 1.22-1.58 1.52-1.58 0.68 0 3.45 4.02 3.45 5 0 1.29-1.72 0.78-2.4-0.7-0.86-1.9-1.22-1.81-2.36 0.57-1.1 2.31-1.72 2.48-2.89 0.82-0.713-1.02-0.993-1.09-1.99-0.47-0.943 0.59-1.334 0.58-2.095-0.05-0.817-0.68-1.157-0.51-2.668 1.33-1.905 2.31-3.024 2.59-4.616 1.14-1.227-1.11-1.172-1.15-2.319 1.82-1.002 2.59-2.305 3.14-3.926 1.68-1.064-0.97-1.104-0.95-1.104 0.56 0 1.81-0.925 3.77-1.778 3.77-0.325 0-1.477-0.67-2.559-1.5-1.46-1.11-1.968-1.28-1.968-0.64 0 0.47-0.384 1.18-0.853 1.57-0.47 0.39-0.711 0.94-0.536 1.22 0.174 0.28 0.146 1.05-0.063 1.71-0.276 0.87-0.738 1.13-1.682 0.95-1.134-0.22-1.422 0.13-2.244 2.74-1.206 3.83-2.902 5.99-4.694 5.99-0.867 0-1.391 0.33-1.391 0.88 0 0.48-0.402 1.03-0.893 1.22s-0.756 0.7-0.589 1.13c0.475 1.24-0.301 4.22-1.099 4.22-0.395 0-1.039-0.38-1.431-0.86zm76.548-18.77c-0.12-0.39-0.38-1.42-0.57-2.29-0.42-1.95-1.11-1.98-3.29-0.14-1.96 1.65-2.37 1.73-3.28 0.63-0.5-0.59-0.5-1.15-0.01-2.22 0.53-1.16 0.46-1.63-0.38-2.62-0.82-0.95-1.2-1.06-1.84-0.52-0.64 0.53-0.98 0.44-1.61-0.42-0.44-0.6-0.8-1.6-0.8-2.22 0-1.05-0.07-1.06-1.05-0.17-1.36 1.22-1.76 1.19-3.32-0.27l-1.29-1.21-1.84 1.31-1.84 1.31-1.03-1.26c-0.92-1.15-1.07-1.17-1.56-0.3-0.77 1.38-2.06 0.66-3.22-1.8-0.76-1.58-0.84-2.28-0.36-2.77 0.64-0.63 1.11-0.25 2.01 1.64 0.15 0.31 0.7-0.01 1.22-0.72 0.98-1.33 1.96-1.7 1.96-0.76 0 0.3 0.26 1.22 0.58 2.05l0.57 1.51 1.66-1.19c2.11-1.49 2.78-1.48 4.04 0.06l1.01 1.25 1.75-1.25c2.37-1.68 2.9-1.57 2.8 0.62-0.07 1.6 0.09 1.84 1.15 1.69 1.83-0.25 4.4 2.51 3.96 4.26-0.4 1.58-0.17 1.66 1.56 0.55 0.7-0.45 1.91-0.9 2.7-1.01 1.31-0.17 1.45 0.02 1.61 2.25 0.2 2.67 0.52 2.84 2.93 1.6 2.09-1.08 2.56-0.57 1.34 1.49-0.79 1.35-1.35 1.64-3.15 1.64-1.25 0-2.28-0.31-2.41-0.72zm31.29-10.94c-0.89-1.07-0.35-2.33 1.39-3.27 2.09-1.12 3.13 0.06 1.94 2.19-1.01 1.8-2.37 2.24-3.33 1.08zm4.59-6.63c-1.01-0.63-0.62-2.57 0.56-2.8 0.51-0.1 1.1 0.27 1.31 0.81 0.48 1.26-0.82 2.64-1.87 1.99zm3.92-5.5c0-0.47 0.39-0.86 0.86-0.86 0.48 0 0.86 0.39 0.86 0.86s-0.38 0.86-0.86 0.86c-0.47 0-0.86-0.39-0.86-0.86zm-71.42-32.718c-0.53-2.102 0.83-3.431 2.36-2.312 0.94 0.689 1 1.012 0.42 2.298-0.88 1.915-2.3 1.922-2.78 0.014z"/>
 <metadata>
  <rdf:RDF>
   <cc:Work>
    <dc:format>image/svg+xml</dc:format>
    <dc:type rdf:resource="http://purl.org/dc/dcmitype/StillImage"/>
    <cc:license rdf:resource="http://creativecommons.org/licenses/publicdomain/"/>
    <dc:publisher>
     <cc:Agent rdf:about="http://openclipart.org/">
      <dc:title>Openclipart</dc:title>
     </cc:Agent>
    </dc:publisher>
   </cc:Work>
   <cc:License rdf:about="http://creativecommons.org/licenses/publicdomain/">
    <cc:permits rdf:resource="http://creativecommons.org/ns#Reproduction"/>
    <cc:permits rdf:resource="http://creativecommons.org/ns#Distribution"/>
    <cc:permits rdf:resource="http://creativecommons.org/ns#DerivativeWorks"/>
   </cc:License>
  </rdf:RDF>
 </metadata>
</svg>
