<?xml version="1.0" encoding="iso-8859-1"?>
<!-- Uploaded to: SVG Repo, www.svgrepo.com, Generator: SVG Repo Mixer Tools -->
<!DOCTYPE svg PUBLIC "-//W3C//DTD SVG 1.1//EN" "http://www.w3.org/Graphics/SVG/1.1/DTD/svg11.dtd">
<svg fill="#000000" version="1.1" id="Capa_1" xmlns="http://www.w3.org/2000/svg" xmlns:xlink="http://www.w3.org/1999/xlink" 
	 width="800px" height="800px" viewBox="0 0 61.654 61.654"
	 xml:space="preserve">
<g>
	<path d="M57.159,40.221v-1.39l-10.967,1.346l-1.984-6.079l1.938-0.97l-0.794-1.754c-0.923-2.038-9.294-19.83-20.258-20.016
		c-0.18-1.304-0.681-2.95-1.911-4.607c-0.035-0.711-0.238-1.657-0.931-2.517c-0.96-1.189-2.48-1.793-4.518-1.793
		c-0.153,0-0.313,0.004-0.477,0.011c-2.274,0.099-3.596,1.132-4.304,1.98c-1.203,1.441-1.443,3.256-1.457,4.397l-4.401,4.341h5.025
		v2.394h1.466v0.461h0.391v0.769l-1.725,1.308l-1.514-1.739L9.24,18.466l-5.073-1.665l3.156,5.758l-0.412,0.239l-0.697,4.613
		c-2.101,1.926-6.912,6.935-6.128,11.804c0.441,2.739,2.455,4.821,5.984,6.187l0.124,0.043c0.176,0.057,1.775,0.539,3.78,0.539
		c4.438,0,7.449-2.392,8.26-6.561c0.617-3.174,0.05-5.881-0.885-8.014c1.5,0.482,3.78,1.09,5.749,1.09
		c0.329,0,0.637-0.016,0.924-0.047l0.725,2.383l-7.326,7.052l-3.278,11.739l-6.842,1.369l1.206,4.219h14.245l-0.114-2.742
		l1.226-0.264l0.409-8.799l11.801-6.215l1.843,3.877c0.29,1.077,1.451,3.273,6.109,3.49c4.203,0.195,10.851,0.488,10.851,0.488
		l0.739,0.031l0.271,1.008l1.601,4.537l4.167,0.595V40.122L57.159,40.221z M59.653,44.12l-1.367,0.293l1.367,0.978v7.524
		l-0.685-0.098l-1.172-3.322l-0.977-3.617l-1.857,0.099v1.075c0,0-6.644-0.293-10.846-0.488c-4.201-0.195-4.299-2.148-4.299-2.148
		l-2.834-5.961l-14.657,7.719l-0.391,8.402l-1.368,0.293l0.098,2.347H18.81l-0.391-0.488l-0.879,0.488h-7.524L9.821,56.53
		l6.84-1.367l0.391-1.369h-0.878l3.028-10.846l7.816-7.522l-1.368-4.495c2.736-0.488,2.346-10.943,2.346-10.943h-0.685
		c0,0-0.488,4.788-1.173,8.696c-0.684,3.908-9.673,0.293-9.673,0.293l-3.713-1.399h-0.637c0,0,5.522,4.429,4.155,11.464
		c-1.368,7.033-9.479,4.494-9.479,4.494c-11.628-4.494,1.563-15.34,1.563-15.34l0.879-0.88l-0.879-0.684l0.391-2.586l1.27-0.736
		l-1.66-3.029l1.66,0.545l0.88-1.235l1.075,1.235l0.977-0.74l-0.098,1.27l0.978,0.484l-0.978,2.207h0.88l0.684-0.443l7.817,2.052
		l-0.781-3.818c-1.856-2.351-1.368-5.271-1.368-5.271l-0.879-0.568h-2.443h-0.781v-1.973h-0.391v-0.461h-0.781h-0.685V11.17h-2.149
		l1.563-1.542c0,0-0.685-4.983,3.81-5.179c4.495-0.195,3.812,2.966,3.812,2.966c2.639,3.063,1.954,6.148,1.954,6.148
		C33.957,11.051,43.532,32.2,43.532,32.2l-1.76,0.879l3.029,9.283l10.357-1.271v1.173l4.494-0.099V44.12z M14.948,20.161
		l0.167-2.163h2.928c0.07,1.27,0.404,3.038,1.535,4.672l0.047,0.231l-3.656-0.959l0.463-1.046L14.948,20.161z"/>
</g>
</svg>