<?xml version="1.0" encoding="utf-8"?>
<!-- Uploaded to: SVG Repo, www.svgrepo.com, Generator: SVG Repo Mixer Tools -->
<svg width="800px" height="800px" viewBox="0 0 1024 1024" class="icon"  version="1.1" xmlns="http://www.w3.org/2000/svg"><path d="M889.5 670.8V400.5c0-41.2-33.7-75-75-75H191.6c-41.2 0-75 33.7-75 75v270.3h772.9z" fill="#EDB137" /><path d="M835.5 579.9H116.6v181.9h772.9V633.9c0-29.7-24.3-54-54-54z" fill="#F35428" /><path d="M928.3 781.3H74.8c-5.3 0-9.7-4.4-9.7-9.7v-19.8c0-5.3 4.4-9.7 9.7-9.7h853.6c5.3 0 9.7 4.4 9.7 9.7v19.8c-0.1 5.3-4.4 9.7-9.8 9.7z" fill="#E7E9E6" /><path d="M65.1 763.8v7.9c0 5.3 4.4 9.7 9.7 9.7h853.6c5.3 0 9.7-4.4 9.7-9.7v-7.9h-873z" fill="#C9C9C9" /><path d="M946.9 734.7h-45.4c-6.6 0-12-5.4-12-12V562.6c0-6.6 5.4-12 12-12h45.4c6.6 0 12 5.4 12 12v160.1c0 6.6-5.4 12-12 12z" fill="#686868" /><path d="M889.5 669.8v52.9c0 6.6 5.4 11.9 11.9 11.9H947c6.6 0 11.9-5.4 11.9-11.9v-52.9h-69.4z" fill="#3F3F3F" /><path d="M363.6 370.4h-58.9c-52.7 0-95.7 32.8-95.7 72.8v93h154.6V370.4zM390 370.4h190.4v165.8H390zM666.9 370.4h-59.7v165.8h155.5v-93c-0.1-40-43.2-72.8-95.8-72.8z" fill="#B9E3E8" /><path d="M777.6 627.3H163.9c-2.8 0-5-2.3-5-5v-10.2c0-2.8 2.3-5 5-5h613.7c2.8 0 5 2.3 5 5v10.2c0 2.8-2.2 5-5 5z" fill="#F5DED9" /><path d="M704.1 429.5l2.2 1.2c7.8 4.2 17.7 1.3 21.9-6.5 4.2-7.8 1.3-17.7-6.5-21.9l-2.2-1.2c-7.8-4.2-17.7-1.3-21.9 6.5-4.2 7.8-1.3 17.6 6.5 21.9z" fill="#EBF5F6" /><path d="M944.1 700.8c-4.8 0-8.8-3.9-8.8-8.8V589.2c0-4.8 3.9-8.8 8.8-8.8 4.8 0 8.8 3.9 8.8 8.8v102.9c-0.1 4.8-4 8.7-8.8 8.7z" fill="#C9C9C9" /><path d="M804.2 308.1H195.9c-6.7 0-12.1-5.5-12.1-12.1 0-6.7 5.5-12.1 12.1-12.1h608.3c6.7 0 12.1 5.5 12.1 12.1s-5.4 12.1-12.1 12.1z" fill="#383838" /><path d="M401.4 283.8H266.7c-5.5 0-10-4.5-10-10V170c0-5.5 4.5-10 10-10h134.7c5.5 0 10 4.5 10 10v103.8c0 5.5-4.4 10-10 10z" fill="#9CCF4C" /><path d="M544.1 283.8h-81.7c-5.5 0-10-4.5-10-10v-61.3c0-5.5 4.5-10 10-10h81.7c5.5 0 10 4.5 10 10v61.3c0 5.5-4.5 10-10 10z" fill="#F35129" /><path d="M720.7 283.8H590.4c-5.5 0-10-4.5-10-10V173.6c0-5.5 4.5-10 10-10h130.3c5.5 0 10 4.5 10 10v100.2c0 5.5-4.5 10-10 10z" fill="#239EC7" /><path d="M390 256.5c-5.8 0-10.6-4.8-10.6-10.6v-57.6c0-5.8 4.8-10.6 10.6-10.6s10.6 4.8 10.6 10.6v57.6c-0.1 5.8-4.8 10.6-10.6 10.6z" fill="#F1F7E4" /><path d="M702.4 236.3c-5.8 0-10.6-4.8-10.6-10.6v-37.5c0-5.8 4.8-10.6 10.6-10.6s10.6 4.8 10.6 10.6v37.5c-0.1 5.9-4.8 10.6-10.6 10.6z" fill="#E0EDEF" /><path d="M533 237.2c-5.8 0-10.6-4.8-10.6-10.6S527.2 216 533 216s10.6 4.8 10.6 10.6c0 5.9-4.8 10.6-10.6 10.6z" fill="#F4E7E3" /><path d="M702.4 789.9m-74.1 0a74.1 74.1 0 1 0 148.2 0 74.1 74.1 0 1 0-148.2 0Z" fill="#4A4D4A" /><path d="M702.4 789.9m-33 0a33 33 0 1 0 66 0 33 33 0 1 0-66 0Z" fill="#E5E5E5" /><path d="M638.9 783.8c19.8-35.8 64.9-48.7 100.7-28.9 18.6 10.3 31 27.5 35.9 46.6 4.8-30-9.2-61-37.3-76.6-35.8-19.8-80.9-6.9-100.7 28.9-9.5 17.2-11.5 36.5-7 54.1 1.4-8.2 4.1-16.4 8.4-24.1z" fill="#383838" /><path d="M315.9 789.9m-74.1 0a74.1 74.1 0 1 0 148.2 0 74.1 74.1 0 1 0-148.2 0Z" fill="#4A4D4A" /><path d="M315.9 789.9m-33 0a33 33 0 1 0 66 0 33 33 0 1 0-66 0Z" fill="#E5E5E5" /><path d="M252.4 783.8c19.8-35.8 64.9-48.7 100.7-28.9 18.6 10.3 31 27.5 35.9 46.6 4.8-30-9.2-61-37.3-76.6-35.7-19.9-80.8-6.9-100.6 28.9-9.5 17.2-11.5 36.5-7 54.1 1.3-8.2 4.1-16.4 8.3-24.1z" fill="#383838" /></svg>